/* XPM */
static char *_7851_c4737b56578b5e2f73f7b8aac7c5188acef19a6b7fa23ccd6b67b4261e186eac[] = {
/* columns rows colors chars-per-pixel */
"64 64 190 2 ",
"   c #000300",
".  c #010C01",
"X  c #0B0E09",
"o  c #061200",
"O  c #0B1505",
"+  c #081805",
"@  c #001515",
"#  c #230E05",
"$  c #3A0C06",
"%  c #082B00",
"&  c #132506",
"*  c #0F3500",
"=  c #0C3A00",
"-  c #173507",
";  c #133B00",
":  c #1C3D05",
">  c #25280A",
",  c #253A17",
"<  c #1A1620",
"1  c #323A2C",
"2  c #520907",
"3  c #4C2006",
"4  c #0F4200",
"5  c #144600",
"6  c #1B4402",
"7  c #184B00",
"8  c #175200",
"9  c #1B5400",
"0  c #1D5B00",
"q  c #204207",
"w  c #234909",
"e  c #244B0C",
"r  c #2A4D0A",
"t  c #225404",
"y  c #235E00",
"u  c #2B530D",
"i  c #28580C",
"p  c #355E0F",
"a  c #294718",
"s  c #2C5613",
"d  c #235B12",
"f  c #2D5912",
"g  c #32531C",
"h  c #335918",
"j  c #236300",
"k  c #2E6604",
"l  c #266900",
"z  c #2B6D02",
"x  c #2B620A",
"c  c #36670A",
"v  c #396A0C",
"b  c #2D7204",
"n  c #2F7309",
"m  c #317506",
"M  c #3B7507",
"N  c #3D7B05",
"B  c #34750D",
"V  c #36790D",
"C  c #387C0F",
"Z  c #2E6011",
"A  c #336313",
"S  c #3B6612",
"D  c #3D6B14",
"F  c #3E681B",
"G  c #3B7317",
"H  c #357811",
"J  c #3C7B14",
"K  c #3B7618",
"L  c #3E7A19",
"P  c #35482A",
"I  c #3D562D",
"U  c #3C4734",
"Y  c #427D08",
"T  c #456E1B",
"R  c #427216",
"E  c #45751D",
"W  c #417E1A",
"Q  c #435934",
"!  c #48593D",
"~  c #456B2C",
"^  c #4C7929",
"/  c #507B2E",
"(  c #48663C",
")  c #536C3A",
"_  c #4E7436",
"`  c #494C48",
"'  c #475340",
"]  c #4E544B",
"[  c #545453",
"{  c #59555B",
"}  c #486C41",
"|  c #546644",
" . c #567346",
".. c #5E7352",
"X. c #64695F",
"o. c #657855",
"O. c #64735B",
"+. c #685F6F",
"@. c #666A64",
"#. c #6B7366",
"$. c #72776F",
"%. c #7A7C78",
"&. c #AA110D",
"*. c #DA1912",
"=. c #3C800A",
"-. c #3D8213",
";. c #458A0B",
":. c #4B940A",
">. c #519A0B",
",. c #478515",
"<. c #43821A",
"1. c #49861B",
"2. c #4B8A1C",
"3. c #518D1C",
"4. c #4E9215",
"5. c #569B14",
"6. c #53941D",
"7. c #57991D",
"8. c #5A9C1F",
"9. c #57A20E",
"0. c #5CA718",
"q. c #5CA11D",
"w. c #60A51E",
"e. c #6FB01F",
"r. c #538428",
"t. c #5D9F20",
"y. c #5E9131",
"u. c #5DA120",
"i. c #64AC23",
"p. c #5F804A",
"a. c #6A844E",
"s. c #638459",
"d. c #6F8560",
"f. c #758866",
"g. c #7B956D",
"h. c #7C8272",
"j. c #7D9272",
"k. c #80C516",
"l. c #9AD82D",
"z. c #ACEB30",
"x. c #85897D",
"c. c #859576",
"v. c #7B6F84",
"b. c #837C8A",
"n. c #848583",
"m. c #8C8C8B",
"M. c #899083",
"N. c #94968C",
"B. c #8E8891",
"V. c #918A96",
"C. c #979895",
"Z. c #94A187",
"A. c #9E97A2",
"S. c #8C9DB5",
"D. c #A29CA6",
"F. c #A59DAB",
"G. c #A9A7A8",
"H. c #ABAAAB",
"J. c #AEB1A4",
"K. c #B2B3AB",
"L. c #B2ADB7",
"P. c #B5B3B7",
"I. c #C0C0B9",
"U. c #99A4D0",
"Y. c #BDB6C2",
"T. c #C1BBC5",
"R. c #C3BAC9",
"E. c #BBC9F8",
"W. c #C9C4CA",
"Q. c #CDC5D2",
"!. c #CFCAD1",
"~. c #D6D4D6",
"^. c #DCE7CA",
"/. c #EAEFDD",
"(. c #EDFED6",
"). c #EFFFD9",
"_. c #F4FFDD",
"`. c #DDD6E2",
"'. c #C2CEFF",
"]. c #E3DAE8",
"[. c #E9E1EE",
"{. c #F5FCE3",
"}. c #FBFFE4",
"|. c #FFFFEB",
" X c #EFE6F4",
".X c #F1ECF5",
"XX c #F5EDFB",
"oX c #FDFDF5",
"OX c #FCF4FF",
"+X c #cd00cd",
/* pixels */
"+X+X+X+X+X+X+X+X+X+X+X+X+X+X+X+X+X+X+X+X+X+X+X+X+X+X+X+X+X+X+X+X+X+X+X+X+X+X+X+X+X+X+XQ.m.| e d.W.+X+X+X+X+X+X+X+X+X+X+X+X+X+X+X",
"+X+X+X+X+X+X+X+X+X+X+X+X+X+X+X+X+X+X+X+X+X+X+X+X+X+X+X+X+X+X+X+X+X+X+X+X+X+X+X+X+X[., y 5.-.L H z f P.+X+X+X+X+X+X+X+X+X+X+X+X+X",
"+X+X+X+X+X+X+X+X+X+X+X+X+X+X+X+X+X+X+X+X+X+X+X+X+X+X+X+X+X+X+X+X+X+X+X+X+X+X+X+XA.= H l.z.l.<.G K J z _ +X+X+X+X+X+X+X+X+X+X+X+X",
"+X+X+X+X+X+X+X+X+X+X+X+X+X+X+X+X+X+X+X+X+X+X+X+X+X+X+X+X+X+X+X+X+X+X+X+X+X+X+Xb.8 L e.k.N C 4.t.2.K K V x .X+X+X+X+X+X+X+X+X+X+X",
"+X+X+X+X+X+X+X+X+X+X+X+X+X+X+X+X+X+X+X+X+X+X+X+X+X+X+X+X+X+X+X+X+X+X+X+X+X+XL.5 <.J ( U.E.S.o.Y 0.<.K L J x +X+X+X+X+X+X+X+X+X+X",
"+X+X+X+X+X+X+X+X+X+X+X+X+X+X+X+X+X+X+X+X+X+X+X+X+X+X+X+X+X+X+X+X+X+X+X+X+X+X% <.L K ~ / / s.S.E.T 8.K W L B p.+X+X+X+X+X+X+X+X+X",
"+X+X+X+X+X+X+X+X+X+X+X+X+X+X+X+X+X+X+X+X+X+X+X+X+X+X+X+X+X+X+X+X+X+X+X+X+XU -.J m ;.0.q.5.5.>.~ '.E W L L L l `.+X+X+X+X+X+X+X+X",
"+X+X+X+X+X+X+X+X+X+X+X+X+X+X+X+X+X+X+X+X+X+X+X+X+X+X+X+X+X+X+X+X+X+X+X+XR.8 -.g J.K.) :.8.8.8.9.~ E.k J L L B g.+X+X+X+X+X+X+X+X",
"+X+X+X+X+X+X+X+X+X+X+X+X+X+X+X+X+X+X+X+X+X+X+X+X+X+X+X+X+X+X+X+X+X+X+X+X, -.s |.|._.oXh.5.8.8.7.>.U.} J L L J / +X+X+X+X+X+X+X+X",
"+X+X+X+X+X+X+X+X+X+X+X+X+X+X+X+X+X+X+X+X+X+X+X+X+X+X+X+X+X+X+X+X+X+X+XF.j B c.oXN._.(.+Xc ;.M >.9.^ ~ J L L K i +X+X+X+X+X+X+X+X",
"+X+X+X+X+X+X+X+X+X+X+X+X+X+X+X+X+X+X+X+X+X+X+X+X+X+X+X+X+X+X+X+X+X+X+X- -.B Z._._.).(.|.Q !./.K._ 0.L L L L L 0 +X+X+X+X+X+X+X+X",
"+X+X+X+X+X+X+X+X+X+X+X+X+X+X+X+X+X+X+X+X+X+X+X+X+X+X+X+X+X+X+X+X+X+XB.z E ,.) oX).).}.C._._._._.oXT J L L L L j XX+X+X+X+X+X+X+X",
"+X+X+X+X+X+X+X+X+X+X+X+X+X+X+X+X+X+X+X+X+X+X+X+X+X+X+X+X+X+X+X+X+X+X* -.1.i.k o./.+XJ.| }._.x._.{.c.B K L L L 0 OX+X+X+X+X+X+X+X",
"+X+X+X+X+X+X+X+X+X+X+X+X+X+X+X+X+X+X+X+X+X+X+X+X+X+X+X+X+X+X+X+X+X] -.s R S p R N & :.a.|.).^._.}.f.B E L L L t +X+X+X+X+X+X+X+X",
"+X+X+X+X+X+X+X+X+X+X+X+X+X+X+X+X+X+X+X+X+X+X+X+X+X+X+X+X+X+X+X+XQ.9 f S   < y.w.R i.3.Y W.}._._.{.t J L L L J ~ +X+X+X+X+X+X+X+X",
"+X+X+X+X+X+X+X+X+X+X+X+X+X+X+X+X+X+X+X+X+X+X+X+X+X+X+X+X+X+X+X+X, J G O O . v.3.v R ,.8.N c.I.J.g J L L L L B j.+X+X+X+X+X+X+X+X",
"+X+X+X+X+X+X+X+X+X+X+X+X+X+X+X+X+X+X+X+X+X+X+X+X+X+X+X+X+X+X+XV.z L R & O O X F.n e.0.q.D Y 9.x J L L L L K m P.+X+X+X+X+X+X+X+X",
"+X+X+X+X+X+X+X+X+X+X+X+X+X+X+X+X+X+X+X+X+X+X+X+X+X+X+X+X+X+X+X* W R R h   O o 1 V.+.{ ..r.w.R L L L L L L L 7 +X+X+X+X+X+X+X+X+X",
"+X+X+X+X+X+X+X+X+X+X+X+X+X+X+X+X+X+X+X+X+X+X+X+X+X+X+X+X+X+X@.-.L K i.p {   o o . . . . X & E L L L L L L C  .+X+X+X+X+X+X+X+X+X",
"+X+X+X+X+X+X+X+X+X+X+X+X+X+X+X+X+X+X+X+X+X+X+X+X+X+X+X+X+X X5 r G K u.6.r b.`   + 2 &.# + X - d W L L L L m G.+X+X+X+X+X+X+X+X+X",
"+X+X+X+X+X+X+X+X+X+X+X+X+X+X+X+X+X+X+X+X+X+X+X+X+X+X+X+X+X' c e -.W t.t.3.3.[ D.  . 2 *.. O & Z W L L L L 7 +X+X+X+X+X+X+X+X+X+X",
"+X+X+X+X+X+X+X+X+X+X+X+X+X+X+X+X+X+X+X+X+X+X+X+X+X+X+X+X~.8 <.K K 1.t.t.8.8.9.g D.V.@ &.$ . a Z L L L L C o.+X+X+X+X+X+X+X+X+X+X",
"+X+X+X+X+X+X+X+X+X+X+X+X+X+X+X+X+X+X+X+X+X+X+X+X+X+X+X+XP J L L K 2.8.8.8.8.8.w.:./ g.3 > s f <.L L L L l Q.+X+X+X+X+X+X+X+X+X+X",
"+X+X+X+X+X+X+X+X+X+X+X+X+X+X+X+X+X+X+X+X+X+X+X+X+X+X+XY.y L L L K 7.t.8.8.8.8.8.8.8.8.d Z Z <.L L L L L g +X+X+X+X+X+X+X+X+X+X+X",
"+X+X+X+X+X+X+X+X+X+X+X+X+X+X+X+X+X+X+X+X+X+X+X+X+X+X+Xa J L L L <.t.7.t.7.7.t.7.t.t.K L L W L L L L L b H.+X+X+X+X+X+X+X+X+X+X+X",
"+X+X+X+X+X+X+X+X+X+X+X+X+X+X+X+X+X+X+X+X+X+X+X+X+X+XD.l L L L K 6.8.t.7.t.t.t.7.t.<.K L L L L L L L J w +X+X+X+X+X+X+X+X+X+X+X+X",
"+X+X+X+X+X+X+X+X+X+X+X+X+X+X+X+X+X+X+X+X+X+X+X+X+X+X: J L L L W q.7.t.t.t.t.t.7.t.G L L L L L L L L B M.+X+X+X+X+X+X+X+X+X+X+X+X",
"+X+X+X+X+X+X+X+X+X+X+X+X+X+X+X+X+X+X+X+X+X+X+X+X+X%.m L L L K 6.t.t.7.t.7.7.t.t.L L L L L L L L L L 7 +X+X+X+X+X+X+X+X+X+X+X+X+X",
"+X+X+X+X+X+X+X+X+X+X+X+X+X+X+X+X+X+X+X+X+X+X+X+XXX5 L L L L K 8.t.7.7.t.t.7.u.1.K L L L L L L L L J o.+X+X+X+X+X+X+X+X+X+X+X+X+X",
"+X+X+X+X+X+X+X+X+X+X+X+X+X+X+X+X+X+X+X+X+X+X+X+XU -.J L L K 1.8.7.t.t.7.7.u.2.K L L L L L L L L L 0 `.+X+X+X+X+X+X+X+X+X+X+X+X+X",
"+X+X+X+X+X+X+X+X+X+X+X+X+X+X+X+X+X+X+X+X+X+X+XD.b L L L L L u.8.t.7.t.t.q.<.K L L L L L L L L J J ! +X+X+X+X+X+X+X+X+X+X+X+X+X+X",
"+X+X+X+X+X+X+X+X+X+X+X+X+X+X+X+X+X+X+X+X+X+XOX5 J L L L K 8.8.8.t.7.t.7.K K L L L W L L L L L L 0 `.+X+X+X+X+X+X+X+X+X+X+X+X+X+X",
"+X+X+X+X+X+X+X+X+X+X+X+X+X+X+X+X+X+X+X+X+X+XI -.L L L K 2.u.7.t.7.t.6.K K L L L L L L L L L L J ( +X+X+X+X+X+X+X+X+X+X+X+X+X+X+X",
"+X+X+X+X+X+X+X+X+X+X+X+X+X+X+X+X+X+X+X+X+Xm.m r L L K <.u.7.t.t.7.t.K L L L L L L L L L L L L z W.+X+X+X+X+X+X+X+X+X+X+X+X+X+X+X",
"+X+X+X+X+X+X+X+X+X+X+X+X+X+X+X+X+X+X+X+X].8 <.Z L L L u.8.t.7.7.u.L K L L L L L L L L K L L L h +X+X+X+X+X+X+X+X+X+X+X+X+X+X+X+X",
"+X+X+X+X+X+X+X+X+X+X+X+X+X+X+X+X+X+X+X+Xe J L L L L u.7.t.7.t.t.2.K L L L L L L L L i S L L b H.+X+X+X+X+X+X+X+X+X+X+X+X+X+X+X+X",
"+X+X+X+X+X+X+X+X+X+X+X+X+X+X+X+X+X+X+X| V L L L K 6.8.t.t.t.7.7.L L L L L L L L L K : E L L t +X+X+X+X+X+X+X+X+X+X+X+X+X+X+X+X+X",
"+X+X+X+X+X+X+X+X+X+X+X+X+X+X+X+X+X+XC.z L L L L <.q.t.7.7.t.t.6.K L L L L L L L L L 1.L L b C.+X+X+X+X+X+X+X+X+X+X+X+X+X+X+X+X+X",
"+X+X+X+X+X+X+X+X+X+X+X+X+X+X+X+X+XT.0 L L L L K 6.8.7.t.t.7.u.1.K L L L L L L L L K L L J w +X+X+X+X+X+X+X+X+X+X+X+X+X+X+X+X+X+X",
"+X+X+X+X+X+X+X+X+X+X+X+X+X+X+X+X!.0 L L L L K L t.8.7.t.t.7.u.K L L L L L L L K L L L L j Y.+X+X+X+X+X+X+X+X+X+X+X+X+X+X+X+X+X+X",
"+X+X+X+X+X+X+X+X+X+X+X+X+X+X+X`.0 J L L L L K 6.t.t.7.t.7.t.6.K L L L L L L L L L L L -.Q +X+X+X+X+X+X+X+X+X+X+X+X+X+X+X+X+X+X+X",
"+X+X+X+X+X+X+X+X+X+X+X+X+X+XXX9 J K L L L L <.8.7.t.t.7.t.7.K K L L L L L L L L L L L 8  X+X+X+X+X+X+X+X+X+X+X+X+X+X+X+X+X+X+X+X",
"+X+X+X+X+X+X+X+X+X+X+X+X+X+Xe J L L L L L L q.8.t.7.t.u.t.K K L L L L L L L L L L L V $.+X+X+X+X+X+X+X+X+X+X+X+X+X+X+X+X+X+X+X+X",
"+X+X+X+X+X+X+X+X+X+X+X+X+X! C L L L <.s A 8.8.8.8.8.8.1.G K L L L L L L L L L L L -.6 +X+X+X+X+X+X+X+X+X+X+X+X+X+X+X+X+X+X+X+X+X",
"+X+X+X+X+X+X+X+X+X+X+X+XC.m <.K L L <.: 8.8.8.8.t.t.<.K L L L L L L L L L L L L L l L.+X+X+X+X+X+X+X+X+X+X+X+X+X+X+X+X+X+X+X+X+X",
"+X+X+X+X+X+X+X+X+X+X+X[.y w w <.L K K t.8.8.8.8.t.t.K K L L L L L L L L L L L L J Q +X+X+X+X+X+X+X+X+X+X+X+X+X+X+X+X+X+X+X+X+X+X",
"+X+X+X+X+X+X+X+X+X+X+Xa <.u A L L G 7.t.8.8.8.8.t.L L L L L L L W L L L L ^ J L 7  X+X+X+X+X+X+X+X+X+X+X+X+X+X+X+X+X+X+X+X+X+X+X",
"+X+X+X+X+X+X+X+X+X+Xn.m L W L L G 6.8.8.8.8.8.t.W L L L L L L L L L L L L L K m n.+X+X+X+X+X+X+X+X+X+X+X+X+X+X+X+X+X+X+X+X+X+X+X",
"+X+X+X+X+X+X+X+X+XOX7 J L L L K 1.u.7.7.t.7.q.<.K L L L L L L L L L L L L L J , +X+X+X+X+X+X+X+X+X+X+X+X+X+X+X+X+X+X+X+X+X+X+X+X",
"+X+X+X+X+X+X+X+X+X#.V L L L L W u.7.t.t.7.u.2.K L L L L L L L L L L L L L -.; OX+X+X+X+X+X+X+X+X+X+X+X+X+X+X+X+X+X+X+X+X+X+X+X+X",
"+X+X+X+X+X+X+X+X+X; L L L L G 7.t.t.t.7.u.2.K L L L L L L L L L L L L L L 4 `.+X+X+X+X+X+X+X+X+X+X+X+X+X+X+X+X+X+X+X+X+X+X+X+X+X",
"+X+X+X+X+X+X+X+XF.m L L L K W t.7.t.7.q.6.K K L L L L L L L L L L L L -.7 R.+X+X+X+X+X+X+X+X+X+X+X+X+X+X+X+X+X+X+X+X+X+X+X+X+X+X",
"+X+X+X+X+X+X+X+XO.C L L L K t.t.t.7.u.6.K L L L L L L L K K L L L L L 9 G.+X+X+X+X+X+X+X+X+X+X+X+X+X+X+X+X+X+X+X+X+X+X+X+X+X+X+X",
"+X+X+X+X+X+X+X+Xg L L L W K t.7.t.u.6.K K L L L L L L K q e <.L L L j B.+X+X+X+X+X+X+X+X+X+X+X+X+X+X+X+X+X+X+X+X+X+X+X+X+X+X+X+X",
"+X+X+X+X+X+X+X+X; L L L L K W 7.6.1.K L L L L L L L L G q F L L L j %.+X+X+X+X+X+X+X+X+X+X+X+X+X+X+X+X+X+X+X+X+X+X+X+X+X+X+X+X+X",
"+X+X+X+X+X+X+X+X= L L L L L K G K L K L L L L E L L L L 2.L L L z @.+X+X+X+X+X+X+X+X+X+X+X+X+X+X+X+X+X+X+X+X+X+X+X+X+X+X+X+X+X+X",
"+X+X+X+X+X+X+X+X= W L L L L L L L L L L L L L L L L L L L L L l X.+X+X+X+X+X+X+X+X+X+X+X+X+X+X+X+X+X+X+X+X+X+X+X+X+X+X+X+X+X+X+X",
"+X+X+X+X+X+X+X+X6 L L L L L L L L L L L L L L L L L L L K L z @.+X+X+X+X+X+X+X+X+X+X+X+X+X+X+X+X+X+X+X+X+X+X+X+X+X+X+X+X+X+X+X+X",
"+X+X+X+X+X+X+X+XQ J K L L L L L L L L L L L L L L L L L W l #.+X+X+X+X+X+X+X+X+X+X+X+X+X+X+X+X+X+X+X+X+X+X+X+X+X+X+X+X+X+X+X+X+X",
"+X+X+X+X+X+X+X+XG.l L L L L L L L L L L L L L L L L L W 9 n.+X+X+X+X+X+X+X+X+X+X+X+X+X+X+X+X+X+X+X+X+X+X+X+X+X+X+X+X+X+X+X+X+X+X",
"+X+X+X+X+X+X+X+X+X' b L L L L L L L L L L L L L L L =.5 P.+X+X+X+X+X+X+X+X+X+X+X+X+X+X+X+X+X+X+X+X+X+X+X+X+X+X+X+X+X+X+X+X+X+X+X",
"+X+X+X+X+X+X+X+X+X+X$.7 J L L L L L L L L L L L J 5 ' XX+X+X+X+X+X+X+X+X+X+X+X+X+X+X+X+X+X+X+X+X+X+XoX+X+X+X+X+X+X+X+X+X+X+X+X+X",
"+X+X+X+X+X+X+X+X+X+X+X XO.; b V J -.<.J J V j ; @.[.+X+X+X+X+X+X+X+X+X+X+X+X+X+X+X+X+X+X+X+X+X+X+X+X+X+X+X+X+X+X+X+X+X+X+X+X+X+X",
"+X+X+X+X+X+X+X+X+X+X+X+X+X+XY.M...I a ( O.M.Q.+X+X+X+X+X+X+X+X+X+X+X+X+X+X+X+X+X+X+X+X+X+X+X+X+X+X+X+X+X+X+X+X+X+X+X+X+X+X+X+X+X"
};
