/* XPM */
static char *_1321_fc14a546d27da40515f9eaf2d6bed5cb0241b3eb1d399c6d84e89d0410565861[] = {
/* columns rows colors chars-per-pixel */
"64 64 73 1 ",
"  c black",
". c #010101",
"X c #020202",
"o c gray1",
"O c #040404",
"+ c gray2",
"@ c #060606",
"# c #070707",
"$ c gray3",
"% c #090909",
"& c gray4",
"* c #0B0B0B",
"= c #0C0C0C",
"- c gray5",
"; c #0E0E0E",
": c gray6",
"> c #101010",
", c #111111",
"< c gray7",
"1 c #131313",
"2 c gray8",
"3 c #151515",
"4 c #161616",
"5 c gray9",
"6 c #181818",
"7 c #191919",
"8 c gray10",
"9 c #1B1B1B",
"0 c gray11",
"q c #1D1D1D",
"w c #1E1E1E",
"e c gray12",
"r c #202020",
"t c gray13",
"y c #232323",
"u c gray14",
"i c #252525",
"p c gray15",
"a c #272727",
"s c gray16",
"d c #2A2A2A",
"f c gray17",
"g c #2C2C2C",
"h c #2D2D2D",
"j c gray18",
"k c #2F2F2F",
"l c gray19",
"z c #313131",
"x c #323232",
"c c gray20",
"v c #343434",
"b c #353535",
"n c gray21",
"m c gray22",
"M c gray23",
"N c #3C3C3C",
"B c gray24",
"V c gray25",
"C c #414141",
"Z c #444444",
"A c gray27",
"S c #464646",
"D c gray29",
"F c #4E4E4E",
"G c #505050",
"H c gray33",
"J c #555555",
"K c gray34",
"L c gray38",
"P c #626262",
"I c #676767",
"U c gray52",
"Y c gray66",
/* pixels */
".o XOX   #X OX   O .&   +%  .  X#  # o. o o+XX..o.. @  O.X  .. O",
"  # + @ o . O&.@+ Xoo X.+ X&5oX&.X+.7 #  oo %X. #. + .:   oO% o ",
"o O %.-o  +  o -o @  o+Xo  . c  %  X,XX2+:  O ;X *.XO @g-  #XX=.",
" .o .o%..X  X X# .O XX o +  ..OO 5. ,+ w O O OXN     .X3 #7 O $ ",
"O  .;  oo.  X XO   .+  XXXX .o.    g.@  X &.X  6@=X X@ .. o-O.@.",
" .@mq .SO @X . +  XX X;   oO.X o .+  o.OOX$  7 g+ coX ;8 +@X o7O",
"... ;oX $ X .+    +  &<  X o XXXX  OX -@XXo. <o   OOX<0 o4  %7..",
"   .X  .   .  oXO . O#OXo .X# o  XO . XX.  .O  ..X. .. X  oOot. ",
".+ O   .o  o  @  & .X .# +.X. e .X   =   MOX @ X O #X o;5X  X= X",
"@X  +X.  & . . .o +X .X  @.+ o.+o  4ao$z#. @i X O @   f  O@ X O.",
"  Xoo o.X; O ..&   O +-@X@X ; .+. o  o@  >1=XO-o @ O#X.O oX @@+ ",
"   X.X X. $e.X#  O    &. o O@ .@O@9O& 1. o7  +  +  @ # O*=I @ XO",
"=m    + XX #o  @. : O $ 2 X. Xo.+  .  7XX. o   $X  X Xo =..O OO ",
"   Xo. ..     X  @O  . X  .OX2    O. .  X@.+  @ O O> O .r  O+   ",
" <   p ,... oX  O5 o X oP$ +  .o+ .  *.Ou..  > o @X. + .XXo#: &X",
"X oo O .@   X  X$oO .XX X.9o.aO9 o OA o. XX ..o .f;7= .$ .@ o@ +",
" + .%o .OX%. q5 O X   X.Xo X   *X X    OXO K X  . @ee O#XX* 4.&o",
"o& @  o    .. #  - o aX  X oXoXo X+  O O+ @.@*o t. XXOoO . +& .t",
"p-  X$X  @.o   $ @  # OX.@ .O   .O  # :$O  .$4 + O.* X .o @. $ X",
"@+ .; .      b    .+   .. o:O +. . O = . .. ..O #  hX. +.X oX.>O",
" oo ...X=X .o  @X +. oooo&   oo oo  @t ..+ O X . j .#,$  XXo   o",
"2 u +  X  oX #   #     * O O+  u. $o     6  . 7X#+ .. .$$--  +-O",
"wO . +  oX. .$o .X= O, .. XX o..   % >+O X+oX+ .O+. o oo$X2OX.o ",
"  O X  o X o o $O.= X-@  X  $o e xO. oo .1 .X X.X +@ +$ X= o .X#",
"O.X o   . o X &; X   Oov    Xo  o#. X O. .@ @ .. >.  .XsA $ oX o",
" . osV@ &X   w    . o. o.   @OOX O=oo = OO XX. @X OoO;.o+..X&@&+",
"o    .0$5   6+ O =  .o   Oa  w=X-  Xoo   +Xo.$X. + *l o .@ *Y6 -",
" %...  . @.l. .     o OX#X  o &   0o&..q+  XX  #. o>O oX .5O * *",
" o  I:o X@ = %X  +X Xo    X$X o.&      u +@.  X. $   XX @+  %%4k",
"o oX+ $++  X.  o@ @.  .+@.   #@.Oo+ O.-o  X;+. o O O+  -f >X+.Z0",
"X . X@ O % XXO .+ yX $p  O#. XO X. #X#& XXXO o+O* h  & i:  ; o .",
" o@q .  . oX  o X X.   @o . O  X XX..$  $ o O o $e%oO> X..X. .O ",
". @ o  . X  .X   %oXO  X. .X.      o13O $ .X=; oX  # &.  @7o70 o",
"o. >qX... :2X #. X. OOb@ .o  XoOo.* +  X.dO  o X> 5OO $.X+&72 o$",
" X ,0 . ;   o O.@..+ . X+  Oo .-  o+X o.X  *@r8 b+...X .X&  X.o.",
"o XX+    O+. oO  .  X # X X  .X#.OXo%.d  :XX  XOX X.X@ $ >,o.  o",
"1 .  X.oX X uX XO $o.X X  X  X  o.. ,  =.$ +OO + XX X.+o  O:..6.",
"; XO  o  X.o +o O  X>.o.X  XOo . >o<o.O  .  #.X%X. 6X oX#X C O..",
" .oX  .  O X . oo X D.   XO X$O .$ X  +..Xq .@o@X.+3  O . +5 X .",
"X   o+ o. X o .  .X X. XO  XOX X  .  O.X. ..  oO X@9.  , X   #.o",
". X. O  @   X. @o  oO.o.o.O .  X  e@X.O o o 6@% = o.$o  . X@&@  ",
". O@  .. o+  XO      . .X  @0 OX<X O.. >-O  O@ . @*@: .. XXX$. o",
"X X & . 8 B   Ok+$ . #.. X. GX. o o 6*O  4#o ooO  @XoX#;+ XO%L H",
"  @ nXX> . O.OX  + .+    . # oX+ &  %   O p  O  O O  So  .O +o7 ",
"X$o   o  #.   X+O ot #oX@Xz .$  O#o .i@o.+ .;,O@ . X1=XO.OX ;=Xh",
"   X+  .o . .+ X  + .X o .-+  o.@; o  o   @ .  . #X.X# X.o  .o #",
"O .  oX   X@  + .o  .X  e   X; X = X XOooo= +4 oO XX$ F$X o2.o+X",
" .$ o  Xv.   . X o n4 XX % @ *O.o X .. w %+X oX O@+#%Xo OoXw .=O",
"O  o X$X. ..X.. . X  X $ Oo..O 7 Xo .,X o .=X +  $@2yO@ XX2  o@+",
" # +   O+ XX  .oX.O   @ @  +c& 0.O. .$ # O#O t;$$oo% + +o @27 o.",
". + X2 . .  oO   .X=O @  .w . X4  XXX X O XOo5 .OX  @O OX.XO$<o$",
"+.@. Oo.+ X. .X o $O   X   X X . X@ : +  +  % #  +ooX.o+ =+. ..%",
".  OX .. X. + +X. g #. o*# #  o.o Oo@ & o 4 OX .& #.  @ o X 8OO.",
" $  o& XX* o.X Oo> . @o  o.# OX  O $O  o  oO+ .$ 8  %t.$*J..OX+ ",
" 7o   OO O UO .   *O X #XeoO+&o X.o: ..X-#  &  +X  @+. ;@ *Xo$ @",
"   Xo  X+ X. OOO     .= . XX   XX..  .o $.Xop .X+ q. +X % 6 O * ",
". o . .   Xo. .+X.X7 +  m O .X % OOX o.O  o .o+ X ,X#=.XX  6 # o",
" # . + po   X.  X  #  XX5. XO  >o@ .X Xq.X @$  .XOXX# qi o. oXO ",
"X  X  o 1*X ..XX. @o#1.  >> X8 @   XXX #* +  o#O   O o %X+.o.#.o",
"  6   . X        O .  X4+XwOoX X@o.  #o X+.i+o  7 X#X 4k@ @O o O",
". X o+    XooXXXo ..*2  #0 .  *  XXX*# & o -:e.% @X  & z X.+ $OO",
" 5 o,  .@o       o  O. X  ,$;XX O   . .;..o+4 .ON=.+ .#  XO rX=X",
"X+o ..O.   XOO. @  O  Or +  -  oo +oOX. . o  oX  X   + XOO X9@XO",
"   X o  XXX.  .X o * OX   +. + o .o %O @o@ . oX+XO 8# s ,%O .- %"
};
