/* XPM */
static char *_8040_059965bd40eac982564e9653eddc4bb69fd113e2c7ab837abd2b61654d0ffbab[] = {
/* columns rows colors chars-per-pixel */
"64 64 208 2 ",
"   c #120101",
".  c #360807",
"X  c #2C1409",
"o  c #3A0913",
"O  c #271418",
"+  c #341B19",
"@  c #3B2725",
"#  c #392A35",
"$  c #4E020D",
"%  c #410D09",
"&  c #5D000B",
"*  c #44110E",
"=  c #450D1A",
"-  c #5F0F1B",
";  c #461919",
":  c #56131B",
">  c #6D141F",
",  c #42221F",
"<  c #51211D",
"1  c #540D2D",
"2  c #641923",
"3  c #7A1621",
"4  c #462827",
"5  c #452B29",
"6  c #532A29",
"7  c #49322D",
"8  c #4F3432",
"9  c #43313A",
"0  c #513433",
"q  c #6D262A",
"w  c #6D2B32",
"e  c #79333C",
"r  c #326435",
"t  c #4A5F2A",
"y  c #4B4236",
"u  c #59443A",
"i  c #496C31",
"p  c #566E3B",
"a  c #577936",
"s  c #29264D",
"d  c #3A2E43",
"f  c #3C3344",
"g  c #2B3565",
"h  c #6E1945",
"j  c #403748",
"k  c #443B4C",
"l  c #473C52",
"z  c #483E52",
"x  c #662947",
"c  c #743F45",
"v  c #7B395A",
"b  c #3A684C",
"n  c #3B7946",
"m  c #357A65",
"M  c #49424F",
"N  c #554244",
"B  c #4D4355",
"V  c #4F4558",
"C  c #50465A",
"Z  c #544B5D",
"A  c #5C5A58",
"S  c #664B45",
"D  c #645958",
"F  c #7B5458",
"G  c #547643",
"H  c #447C50",
"J  c #667B46",
"K  c #564B62",
"L  c #595564",
"P  c #625D67",
"I  c #5A776A",
"U  c #696267",
"Y  c #766969",
"T  c #6F6E73",
"R  c #777778",
"E  c #842430",
"W  c #8B1959",
"Q  c #852B5C",
"!  c #8E186E",
"~  c #892E63",
"^  c #8A3768",
"/  c #94376D",
"(  c #9E3A75",
")  c #A32A6F",
"_  c #A43878",
"`  c #A43D79",
"'  c #AA3C7D",
"]  c #B3367E",
"[  c #824D53",
"{  c #94516B",
"}  c #A84E73",
"|  c #A8407C",
" . c #95676A",
".. c #8C7375",
"X. c #B67B71",
"o. c #54812F",
"O. c #658739",
"+. c #6E8D3E",
"@. c #6C9337",
"#. c #6B9734",
"$. c #77A83B",
"%. c #358B68",
"&. c #368771",
"*. c #598A4B",
"=. c #538C55",
"-. c #6C8B41",
";. c #638A4B",
":. c #6C934E",
">. c #719443",
",. c #6F8F55",
"<. c #79A143",
"1. c #478567",
"2. c #548E74",
"3. c #46977F",
"4. c #7F827E",
"5. c #82A43D",
"6. c #85A847",
"7. c #84AB4D",
"8. c #91B147",
"9. c #86AE51",
"0. c #8AB351",
"q. c #B6B85F",
"w. c #948669",
"e. c #889671",
"r. c #B29172",
"t. c #92A86C",
"y. c #94A677",
"u. c #CDD063",
"i. c #E7F072",
"p. c #F9FC76",
"a. c #FEFF7C",
"s. c #7E7982",
"d. c #B93988",
"f. c #BB3391",
"g. c #C5388A",
"h. c #9A5582",
"j. c #AB4480",
"k. c #B64586",
"l. c #937588",
"z. c #A66489",
"x. c #A47B92",
"c. c #C2478F",
"v. c #C84692",
"b. c #CD4B96",
"n. c #D24E9B",
"m. c #3BA98A",
"M. c #439884",
"N. c #5A9283",
"B. c #6F968E",
"V. c #47A78B",
"C. c #4EAF93",
"Z. c #4DB397",
"A. c #4BB6A0",
"S. c #888685",
"D. c #8C8D8A",
"F. c #91898A",
"G. c #8C9289",
"H. c #93958D",
"J. c #8D9894",
"K. c #959493",
"L. c #999797",
"P. c #9A9A94",
"I. c #9E9F9B",
"U. c #B1819C",
"Y. c #A79A9B",
"T. c #A2A29C",
"R. c #A5B290",
"E. c #9E9DA0",
"W. c #A09EA3",
"Q. c #9AAFA8",
"!. c #A4A4A2",
"~. c #A9A6A5",
"^. c #AAABA5",
"/. c #ACACAB",
"(. c #B3ACAC",
"). c #B2B3AE",
"_. c #B1AFB3",
"`. c #B5B5B4",
"'. c #BABBB5",
"]. c #B9B7B8",
"[. c #BDBCBC",
"{. c #C292AE",
"}. c #C7B6BD",
"|. c #A9C198",
" X c #B4C1BB",
".X c #C1C1BE",
"XX c #CCBAC5",
"oX c #D6BECC",
"OX c #B6C7C5",
"+X c #C4C4C3",
"@X c #C7CAC8",
"#X c #CCCCCB",
"$X c #D1D2CF",
"%X c #D2CBD0",
"&X c #CBD0D2",
"*X c #D4D4D3",
"=X c #D8D7D8",
"-X c #DBDBDB",
";X c #DFE0DE",
":X c #DDE5E3",
">X c #E2E3E3",
",X c #E9E6E8",
"<X c #EBEBEB",
"1X c #EEF2EF",
"2X c #EFEFF1",
"3X c #F3F4F3",
"4X c #F6F8F8",
"5X c #cd00cd",
/* pixels */
"5X5X5X5X5X5X5X5X5X5X5X5X5X5X5X5X5X5X5X5X5X5X5X5X5X5X5X5X5X5XU A 5X3X5X5X5X5X5X5X5X5X5X5X5X5X5X5X5X5X5X5X5X5X5X5X5X5X5X5X5X5X5X5X",
"5X5X5X5X5X5X5X5X5X5X5X5X5X5X5X5X5X5X5X5X5X5X5X5X5X5X5X5X5X~.; 4 D X 5X5X5X5X5X5X5X5X5X5X5X5X5X5X5X5X5X5X5X5X5X5X5X5X5X5X5X5X5X5X",
"5X5X5X5X5X5X5X5X5X5X5X5X5X5X5X5X5X5X5X5X5X5X5X5X5X5X5X5X5X+ 8 0 4 , #X5X5X5X5X5X5X5X5X5X5X5X5X5X5X5X5X5X5X5X5X5X5X5X5X5X5X5X5X5X",
"5X5X5X5X5X5X5X5X5X5X5X5X5X5X5X5X5X5X5X5X5X5X5X5X5X5X5X5XK.4 8 8 8 4 F.5X5X5X5X5X5X5X5X5X5X5X5X5X5X5X5X5X5X5X5X5X5X5X5X5X5X5X5X5X",
"5X5X5X5X5X5X5X5X5X5X5X5X5X5X5X5X5X5X5X5X5X5X5X5X5X5X5X5X+ 7 0 0 8 8 9 /.F.D 8 # O :X5X5X5X5X5X5X5X5X5X5X5X5X5X5X5X5X5X5X5X5X5X5X",
"5X5X5X5X5X5X5X5X5X5X5X5X5X5X5X5X5X5X5X5X5X5X5X5X5X5X5XY 4 0 0 5 5 @ # ~ O X   D 3X5X5X5X5X5X5X5X5X5X5X5X5X5X5X5X5X5X5X5X5X5X5X5X",
"5X5X5X5X5X5X5X5X5X5X5X5X5X5X5X5X5X5X5X5X5X5X5X5X4XY.k , 5 4 4 @ s L v d.v.J.5X5X5X5X5X5X5X5X5X5X5X5X5X5X5X5X5X5X5X5X5X5X5X5X5X5X",
"5X5X5X5X5X5X5X5X5X5X5X5X5X5X5X5X5X5X5X5X5XI.D A @ S.Y.s s j g R p.$Xr.` ] x.1X5X5X5X5X5X5X5X5X5X5X5X5X5X5X5X5X5X5X5X5X5X5X5X5X5X",
"5X5X5X5X5X5X5X5X5X5X5X5X5X5X5X5X5X5X5X5X5X5X5X5X5X5X^ a.u.w.! p.5.p.q.) d.) 1X5X5X5X5X5X5X5X5X5X5X5X5X5X5X5X5X5X5X5X5X5X5X5X5X5X",
"5X5X5X5X5X5X5X5X5X5X5X5X5X5X5X5X5X5X5X5X5X5X5X5X5X5Xv a.i.X.g.q.p.p.} ) d. .,X5X5X5X5X5X5X5X5X5X5X5X5X5X5X5X5X5X5X5X5X5X5X5X5X5X",
"5X5X5X5X5X5X5X5X5X5X5X5X5X5X5X5X5X5X5X5X5X5X5X5X5X5Xj.F u ( } f.x 1 } ' ] oX5X5X5X5X5X5X5X5X5X5X5X5X5X5X5X5X5X5X5X5X5X5X5X5X5X5X",
"5X5X5X5X5X5X5X5X5X5X5X5X5X5X5X5X5X5X5X5X5X5X5X5X5X5X/ = F  .1 ..u * . ~ v.l.5X5X5X5X5X5X5X5X5X5X5X5X5X5X5X5X5X5X5X5X5X5X5X5X5X5X",
"5X5X5X5X5X5X5X5X5X5X5X5X5X5X5X5X5X5X5X5X5X5X5X5X5XXX1 = ; 0 - q O = o ~ b.] U.5X5X5X5X5X5X5X5X5X5X5X5X5X5X5X5X5X5X5X5X5X5X5X5X5X",
"5X5X5X5X5X5X5X5X5X5X5X5X5X5X5X5X5X5X5X5X5X5X5X5X5X%X1 o 0 o - $ r.7 w ` k.^ %X5X5X5X5X5X5X5X5X5X5X5X5X5X5X5X5X5X5X5X5X5X5X5X5X5X",
"5X5X5X5X5X5X5X5X5X5X5X5X5X5X5X5X5X5X5X5X5X5X5X5X5X5Xz.h r.y y w.{ } n.| n.| 5X5X5X5X5X5X5X5X5X5X5X5X5X5X5X5X5X5X5X5X5X5X5X5X5X5X",
"5X5X5X5X5X5X5X5X5X5X5X5X5X5X5X5X5X5X5X5X5X5X5X5X5X5X:Xg.d.' ' ` _ / n.v._ {.5X5X5X5X5X5X5X5X5X5X5X5X5X5X5X5X5X5X5X5X5X5X5X5X5X5X",
"5X5X5X5X5X5X5X5X5X5X5X5X5X5X5X5X5X5X5X5X5X5X5X5X5X5X5Xl.) ` | / | c.` ` ~ x.5X5X5X5X5X5X5X5X5X5X5X5X5X5X5X5X5X5X5X5X5X5X5X5X5X5X",
"5X5X5X5X5X5X5X5X5X5X5X5X5X5X5X5X5X5X5X5X5X5X5X5X5X5X5X}.l.b.c.` n.| | ( ' h.:.2X5X5X5X5X5X5X5X5X5X5X5X5X5X5X5X5X5X5X5X5X5X5X5X5X",
"5X5X5X5X5X5X5X5X5X5X5X5X5X5X5X5X5X5X5X5X5X5X5X5X5X5X5X5X%Xd.] ' c.b.` | d. .$.R.5X5X5X5X5X5X5X5X5X5X5X5X5X5X5X5X5X5X5X5X5X5X5X5X",
"5X5X5X5X5X5X5X5X5X5X5X5X5X5X5X5X5X5X5X5X5X5X5X5X5X5X5X5X5XW ~ Q ~ ( k.c.( a 6.y.5X5X5X5X5X5X5X5X5X5X5X5X5X5X5X5X5X5X5X5X5X5X5X5X",
"5X5X5X5X5X5X5X5X5X5X5X5X5X5X5X5X5X5X5X5X5X5X5X5X5X5X5X5X5XXX1X4Xz.( [ S a -.0.+.5X5X5X5X5X5X5X5X5X5X5X5X5X5X5X5X5X5X5X5X5X5X5X5X",
"5X5X5X5X5X5X5X5X5X5X5X5X5X5X5X5X5X5X5X5X5X5X5X5X5X5X5X5X5X5X5X5X|.o.@.>.9.7.>.r 5X5X5X5X5X5X5X5X5X5X5X5X5X5X5X5X5X5X5X5X5X5X5X5X",
"5X5X5X5X5X5X5X5X5X5X5X5X5X5X5X5X5X5X5X5X5X5X5X5X5X5X5X5X5X5X5X5Xt.O.9.9.J 0.t m.*X5X5X5X5X5X5X5X5X5X5X5X5X5X5X5X5X5X5X5X5X5X5X5X",
"5X5X5X5X5X5X5X5X5X5X5X5X5X5X5X5X5X5X5X5X5X5X5X5X5X5X5X5X5X5X5X5Xb b 0.;.M.5.B.m.@X5X5X5X5X5X5X5X5X5X5X5X5X5X5X5X5X5X5X5X5X5X5X5X",
"5X5X5X5X5X5X5X5X5X5X5X5X5X5X5X5X5X5X5X5X5X5X5X5X5X5X5X5X5X5X5X,X&.V.O.M.C.i -X%.Q.5X5X5X5X5X5X5X5X5X5X5X5X5X5X5X5X5X5X5X5X5X5X5X",
"5X5X5X5X5X5X5X5X5X5X5X5X5X5X5X5X5X5X5X5X5X5X5X5X5X5X5X5X5X5X5X[.m C.3.Z.V.N.4X=.y.5X5X5X5X5X5X5X5X5X5X5X5X5X5X5X5X5X5X5X5X5X5X5X",
"5X5X5X5X5X5X5X5X5X5X5X5X5X5X5X5X5X5X5X5X5X5X5X5X5X5X5X5X5X5X5Xe.i 2.Z.G V.Q.5Xa O.5X5X5X5X5X5X5X5X5X5X5X5X5X5X5X5X5X5X5X5X5X5X5X",
"5X5X5X5X5X5X5X5X5X5X5X5X5X5X5X5X5X5X5X5X5X5X5X5X5X5X5X5X5X5X,X$.-.:.1.8.%.&X5Xt.r 2X5X5X5X5X5X5X5X5X5X5X5X5X5X5X5X5X5X5X5X5X5X5X",
"5X5X5X5X5X5X5X5X5X5X5X5X5X5X5X5X5X5X5X5X5X5X5X5X5X5X5X5X5X5XG G ;.6.<.8.p 5X5XH.m. X5X5X5X5X5X5X5X5X5X5X5X5X5X5X5X5X5X5X5X5X5X5X",
"5X5X5X5X5X5X5X5X5X5X5X5X5X5X5X5X5X5X5X5X5X5X5X5X5X5X5X5X5X2.Z.m 3.8.=.;.R.5X5X Xm.B.5X5X5X5X5X5X5X5X5X5X5X5X5X5X5X5X5X5X5X5X5X5X",
"5X5X5X5X5X5X5X5X5X5X5X5X5X5X5X5X5X5X5X5X5X5X5X5X5X5X5X5XI *.&.H Z.H A.H <X5X5XOX=.n 3X5X5X5X5X5X5X5X5X5X5X5X5X5X5X5X5X5X5X5X5X5X",
"5X5X5X5X5X5X5X5X5X5X5X5X5X5X5XT.`.$X#X4X5X5X5X5X5X5X5Xy.6.0.p 8.M.M.H N.5X5X5X&X*.<.J.5X5X5X5X5X5X5X5X5X5X5X5X5X5X5X5X5X5X5X5X5X",
"5X5X5X5X5X5X5X5X5X5X5X5X5X5X5X$X#X/.!.T.K.).+X>X5X5X5Xt -.-.9.9.,.6.@.OX5X5X5X&X#.O.7.5X5X5X5X5X5X5X5X5X5X5X5X5X5X5X5X5X5X5X5X5X",
"5X5X5X5X5X5X5X5X5X5X5X5X5X5X5X5X5X5X5X-X*XXXJ.6 [  .* J ,.J +.-.>.>.G 5X5X5X5X5XG.#.>X5X5X5X5X5X5X5X5X5X5X5X5X5X5X5X5X5X5X5X5X5X",
"5X5X5X5X5X5X5X5X5X5X5X5X5X5X5X5X5X5X5X5X5X<XW.e - > c 5X5XW.p -.>.+.y.5X5X5X5X5X5XX #X5X5X5X5X5X5X5X5X5X5X5X5X5X5X5X5X5X5X5X5X5X",
"5X5X5X5X5X5X5X5X5X5X5X5X5X5X5X5X5X5X5X*X^.U  .{ E 3 Y.5X5Xs.K K K l l.5X5X5X5X5X:X$ : ;X5X5X5X5X5X5X5X5X5X5X5X5X5X5X5X5X5X5X5X5X",
"5X5X5X5X5X5X5X5X5X5X5X5X5X5X5X5X<X#XD.H..X`.Y.q 2 e 5X5X5XU B P k K D.5X5X5X5X5Xe @ 7 : 5X5X5X5X5X5X5X5X5X5X5X5X5X5X5X5X5X5X5X5X",
"5X5X5X5X5X5X5X5X5X5X5X5X5X5X$X^.I.H.$X5X5X^.T e.& }.5X5X5XL f 5X@Xl L.5X5X5X4XU w q q > c &X5X5X5X5X5X5X5X5X5X5X5X5X5X5X5X5X5X5X",
"5X5X5X5X5X5X5X5X5X5X5X5X#X).'./.-X5X5X#XG.`.;XR T @X5X5X5XZ # 5X5Xf U 5X5X5X[.D.:X:  ...< L <X5X5X5X5X5X5X5X5X5X5X5X5X5X5X5X5X5X",
"5X5X5X5X5X5X5X5X5X5X5X`.^.#X;X5X5X4XT.I.*X5XK.I. X5X5X5X5XB k 5X5XB f 5X5X*XD.<X5X. -XF E.H.l.#X5X5X5X5X5X5X5X5X5X5X5X5X5X5X5X5X",
"5X5X5X5X5X5X5X5X5X5X5X5X5X5X5X5X=X~./.<X5X+XT.I.*X5X5X5X5Xf f 5X5XT l >X,XI.#X5X[.G.!.4.<X>Xe.L.^.5X5X5X5X5X5X5X5X5X5X5X5X5X5X5X",
"5X5X5X5X5X5X5X5X5X5X5X5X5X5X<X.X X`.5X5X>XI./.H.5X5X5X5X5Xf k 5X5XK.z L.'.`.5X5X5XR 5X!.*X5X>XS.!.!.2X5X5X5X5X5X5X5X5X5X5X5X5X5X",
"5X5X5X5X5X5X5X5X5X5X5X5X5X-X$X#X+X5X5X5X~.`.).+X5X5X5X5X5X# f 5X5X`.z ~.[.4X5X5X5Xe.2X*XP.5X5X-XP.!._.-X5X5X5X5X5X5X5X5X5X5X5X5X",
"5X5X5X5X5X5X5X5X5X5X5X5X5X@X.X*X5X5X5X@X).=X^.>X5X5X5X5X5Xf f 5X5X=Xl S.>X5X5X5X5XP.-X;X^.<X5X5X*X/.^.*X*X5X5X5X5X5X5X5X5X5X5X5X",
"5X5X5X5X5X5X5X5X5X5X5X5X5X5X5X5X5X5X,X[.@X=XI.5X5X5X5X5X5Xj f 5X5X5Xf d 5X5X5X5X5XI.=X5XH.$X5X5X5X.X$XI.XX5X5X5X5X5X5X5X5X5X5X5X",
"5X5X5X5X5X5X5X5X5X5X5X5X5X5X5X5X5X5X+X#X2X^.*X5X5X5X5X5X4Xz f 5X5X5Xz V =X5X5X5X5XK.*X5X`.^.5X5X5X5X'.).,X5X5X5X5X5X5X5X5X5X5X5X",
"5X5X5X5X5X5X5X5X5X5X5X5X5X5X5X5X5X5X'.*X:X'.,X5X5X5X5X5X4Xk f 5X5X5XT z /.5X5X5X5X!.$X5X$XY.5X5X5X5X5X<X3X5X5X5X5X5X5X5X5X5X5X5X",
"5X5X5X5X5X5X5X5X5X5X5X5X5X5X5X5X5X5X5X5X5X-X5X5X5X5X5X5X3Xz k 4X5X5XD.V R 5X5X5X5XK.$X5X;X@X*X5X5X5X5X5X5X5X5X5X5X5X5X5X5X5X5X5X",
"5X5X5X5X5X5X5X5X5X5X5X5X5X5X5X5X5X5X5X5X5X5X5X5X5X5X5X5X<Xz M <X5X5X`.B f 5X5X5X5XP.=X5X5X'.+X5X5X5X5X5X5X5X5X5X5X5X5X5X5X5X5X5X",
"5X5X5X5X5X5X5X5X5X5X5X5X5X5X5X5X5X5X5X5X5X5X5X5X5X5X5X5X<Xz B >X5X5X=XB B =X5X5X5X!.'.5X5X#X^.5X5X5X5X5X5X5X5X5X5X5X5X5X5X5X5X5X",
"5X5X5X5X5X5X5X5X5X5X5X5X5X5X5X5X5X5X5X5X5X5X5X5X5X5X5X5X-XV V =X5X5X5Xf C /.5X5X5X'.'.5X5X2X^.5X5X5X5X5X5X5X5X5X5X5X5X5X5X5X5X5X",
"5X5X5X5X5X5X5X5X5X5X5X5X5X5X5X5X5X5X5X5X5X5X5X5X5X5X5X5X*XV V %X5X5X5XL Z s.5X5X5X<X>X5X5X5X5X5X5X5X5X5X5X5X5X5X5X5X5X5X5X5X5X5X",
"5X5X5X5X5X5X5X5X5X5X5X5X5X5X5X5X5X5X5X5X5X5X5X5X5X5X5X5X*XB V @X5X5X5XR Z M 5X5X5X5X5X5X5X5X5X5X5X5X5X5X5X5X5X5X5X5X5X5X5X5X5X5X",
"5X5X5X5X5X5X5X5X5X5X5X5X5X5X5X5X5X5X5X5X5X5X5X5X5X5X5X5X*XB V +X5X5X5XW.C k 3X5X5X5X5X5X5X5X5X5X5X5X5X5X5X5X5X5X5X5X5X5X5X5X5X5X",
"5X5X5X5X5X5X5X5X5X5X5X5X5X5X5X5X5X5X5X5X5X5X5X5X5X5X5X5X#Xz C ].5X5X5X+XV V ].5X5X5X5X5X5X5X5X5X5X5X5X5X5X5X5X5X5X5X5X5X5X5X5X5X",
"5X5X5X5X5X5X5X5X5X5X5X5X5X5X5X5X5X5X5X5X5X5X5X5X5X5X5X5X@XV C _.5X5X5X<Xl K S.5X5X5X5X5X5X5X5X5X5X5X5X5X5X5X5X5X5X5X5X5X5X5X5X5X",
"5X5X5X5X5X5X5X5X5X5X5X5X5X5X5X5X5X5X5X5X5X5X5X5X5X5X5X5X[.B C ^.5X5X5X5Xf L M 5X5X5X5X5X5X5X5X5X5X5X5X5X5X5X5X5X5X5X5X5X5X5X5X5X",
"5X5X5X5X5X5X5X5X5X5X5X5X5X5X5X5X5X5X5X5X5X5X5X5X5X5X5X5X[.Z K E.5X5X5X5XU K B -X5X5X5X5X5X5X5X5X5X5X5X5X5X5X5X5X5X5X5X5X5X5X5X5X",
"5X5X5X5X5X5X5X5X5X5X5X5X5X5X5X5X5X5X5X5X5X5X5X5X5X5X5X5XT 9 4 l.5X5X5X5XK.K Z !.5X5X5X5X5X5X5X5X5X5X5X5X5X5X5X5X5X5X5X5X5X5X5X5X",
"5X5X5X5X5X5X5X5X5X5X5X5X5X5X5X5X5X5X5X5X5X5X5X5X5X5XT.. ; : * u 5X5X5X5X*X# 9 N 5X5X5X5X5X5X5X5X5X5X5X5X5X5X5X5X5X5X5X5X5X5X5X5X",
"5X5X5X5X5X5X5X5X5X5X5X5X5X5X5X5X5X5X5X5X5X5X5X5X3X6 . . . . S (.5X5X5X5X&X% < % '.5X5X5X5X5X5X5X5X5X5X5X5X5X5X5X5X5X5X5X5X5X5X5X",
"5X5X5X5X5X5X5X5X5X5X5X5X5X5X5X5X5X5X5X5X5X5X5X5X3X+X}.+X;X5X5X5X5X5X5X5X(.% 6 < . 5X5X5X5X5X5X5X5X5X5X5X5X5X5X5X5X5X5X5X5X5X5X5X",
"5X5X5X5X5X5X5X5X5X5X5X5X5X5X5X5X5X5X5X5X5X5X5X5X5X5X5X5X5X5X5X5X5X5X5X5X5X4 % : ; 5X5X5X5X5X5X5X5X5X5X5X5X5X5X5X5X5X5X5X5X5X5X5X",
"5X5X5X5X5X5X5X5X5X5X5X5X5X5X5X5X5X5X5X5X5X5X5X5X5X5X5X5X5X5X5X5X5X5X5X5X5X5XY.4 ~.5X5X5X5X5X5X5X5X5X5X5X5X5X5X5X5X5X5X5X5X5X5X5X"
};
