/* XPM */
static char *_68_d9e73ee6517cd59e06acefc48e7a7e6adab798d32d5e5d92559bc143b451e5c3[] = {
/* columns rows colors chars-per-pixel */
"64 64 210 2 ",
"   c #120101",
".  c #360807",
"X  c #2C1409",
"o  c #3A0913",
"O  c #271418",
"+  c #341B19",
"@  c #3B0A30",
"#  c #3B2725",
"$  c #392A35",
"%  c #4E020D",
"&  c #410D09",
"*  c #5D000B",
"=  c #44110E",
"-  c #450D1A",
";  c #5F0F1B",
":  c #461919",
">  c #56131B",
",  c #6D141F",
"<  c #42221F",
"1  c #51211D",
"2  c #540D2D",
"3  c #641923",
"4  c #7A1621",
"5  c #462827",
"6  c #452B29",
"7  c #532A29",
"8  c #49322D",
"9  c #4F3432",
"0  c #43313A",
"q  c #513433",
"w  c #6D262A",
"e  c #6D2B32",
"r  c #79333C",
"t  c #326435",
"y  c #4A5F2A",
"u  c #4B4236",
"i  c #59443A",
"p  c #496C31",
"a  c #566E3B",
"s  c #577936",
"d  c #29264D",
"f  c #3A2E43",
"g  c #3C3344",
"h  c #2B3565",
"j  c #6E1945",
"k  c #403748",
"l  c #443B4C",
"z  c #473C52",
"x  c #483E52",
"c  c #662947",
"v  c #743F45",
"b  c #7B395A",
"n  c #3A684C",
"m  c #3B7946",
"M  c #357A65",
"N  c #49424F",
"B  c #554244",
"V  c #4D4355",
"C  c #4F4558",
"Z  c #50465A",
"A  c #544B5D",
"S  c #5C5A58",
"D  c #664B45",
"F  c #645958",
"G  c #7B5458",
"H  c #547643",
"J  c #447C50",
"K  c #667B46",
"L  c #767640",
"P  c #564B62",
"I  c #595564",
"U  c #625D67",
"Y  c #5A776A",
"T  c #696267",
"R  c #766969",
"E  c #6F6E73",
"W  c #777778",
"Q  c #842430",
"!  c #8B1959",
"~  c #852B5C",
"^  c #8E186E",
"/  c #892E63",
"(  c #8A3768",
")  c #94376D",
"_  c #9C3276",
"`  c #9E3A75",
"'  c #A32A6F",
"]  c #A43878",
"[  c #A43D79",
"{  c #AA3C7D",
"}  c #B3367E",
"|  c #824D53",
" . c #94516B",
".. c #A84E73",
"X. c #A8407C",
"o. c #95676A",
"O. c #8C7375",
"+. c #B67B71",
"@. c #54812F",
"#. c #658739",
"$. c #6E8D3E",
"%. c #6B9734",
"&. c #77A83B",
"*. c #358B68",
"=. c #368771",
"-. c #598A4B",
";. c #538C55",
":. c #6C8B41",
">. c #638A4B",
",. c #6C934E",
"<. c #719443",
"1. c #6F8F55",
"2. c #79A143",
"3. c #478567",
"4. c #548E74",
"5. c #7F827E",
"6. c #82A43D",
"7. c #85A847",
"8. c #84AB4D",
"9. c #91B147",
"0. c #86AE51",
"q. c #8AB351",
"w. c #B6B85F",
"e. c #948669",
"r. c #889671",
"t. c #B29172",
"y. c #92A86C",
"u. c #94A677",
"i. c #CDD063",
"p. c #E7F072",
"a. c #F9FC76",
"s. c #FEFF7C",
"d. c #7E7982",
"f. c #B93988",
"g. c #BB3391",
"h. c #C5388A",
"j. c #9A5582",
"k. c #AB4480",
"l. c #B64586",
"z. c #937588",
"x. c #A66489",
"c. c #A47B92",
"v. c #C2478F",
"b. c #C84692",
"n. c #CD4B96",
"m. c #D24E9B",
"M. c #3BA98A",
"N. c #439884",
"B. c #5A9283",
"V. c #6F968E",
"C. c #47A78B",
"Z. c #4EAF93",
"A. c #4DB397",
"S. c #4BB6A0",
"D. c #888685",
"F. c #8C8D8A",
"G. c #91898A",
"H. c #8C9289",
"J. c #93958D",
"K. c #8D9894",
"L. c #959493",
"P. c #999797",
"I. c #9A9A94",
"U. c #9E9F9B",
"Y. c #B1819C",
"T. c #A79A9B",
"R. c #9EA098",
"E. c #A2A29C",
"W. c #A5B290",
"Q. c #A09EA3",
"!. c #9AAFA8",
"~. c #A4A4A2",
"^. c #A9A6A5",
"/. c #AAABA5",
"(. c #ACACAB",
"). c #B3ACAC",
"_. c #B2B3AE",
"`. c #B1AFB3",
"'. c #B5B5B4",
"]. c #BABBB5",
"[. c #B9B7B8",
"{. c #BDBCBC",
"}. c #C292AE",
"|. c #C7B6BD",
" X c #B4C1BB",
".X c #C1C1BE",
"XX c #CCBAC5",
"oX c #D6BECC",
"OX c #B6C7C5",
"+X c #C4C4C3",
"@X c #C7CAC8",
"#X c #CCCCCB",
"$X c #D1D2CF",
"%X c #D2CBD0",
"&X c #CBD0D2",
"*X c #D4D4D3",
"=X c #D8D7D8",
"-X c #DBDBDB",
";X c #E1DEDE",
":X c #DFE0DE",
">X c #DDE5E3",
",X c #E2E3E3",
"<X c #E9E6E8",
"1X c #EBEBEB",
"2X c #EEF2EF",
"3X c #EFEFF1",
"4X c #F0F1F0",
"5X c #F3F4F3",
"6X c #F6F8F8",
"7X c #cd00cd",
/* pixels */
"7X7X7X7X7X7X7X7X7X7X7X7X7X7X7X7X7X7X7X7X7X7X7X7X7X7X7X7X7X7X5X7XS F 7X7X7X7X7X7X7X7X7X7X7X7X7X7X7X7X7X7X7X7X7X7X7X7X7X7X7X7X7X7X",
"7X7X7X7X7X7X7X7X7X7X7X7X7X7X7X7X7X7X7X7X7X7X7X7X7X7X7X7X7X7X+ F 5 : ^.7X7X7X7X7X7X7X7X7X7X7X7X7X7X7X7X7X7X7X7X7X7X7X7X7X7X7X7X7X",
"7X7X7X7X7X7X7X7X7X7X7X7X7X7X7X7X7X7X7X7X7X7X7X7X7X7X7X7X7X#X< < q 9 + 7X7X7X7X7X7X7X7X7X7X7X7X7X7X7X7X7X7X7X7X7X7X7X7X7X7X7X7X7X",
"7X7X7X7X7X7X7X7X7X7X7X7X7X7X7X7X7X7X7X7X7X7X7X7X7X7X7X7X7Xr.7 q 9 q 5 P.7X7X7X7X7X7X7X7X7X7X7X7X7X7X7X7X7X7X7X7X7X7X7X7X7X7X7X7X",
"7X7X7X7X7X7X7X7X7X7X7X7X7X7X7X7X7X7X7X7X7X7X:XO # B F G.).q 8 u q 9 9 + 7X7X7X7X7X7X7X7X7X7X7X7X7X7X7X7X7X7X7X7X7X7X7X7X7X7X7X7X",
"7X7X7X7X7X7X7X7X7X7X7X7X7X7X7X7X7X7X7X7X7X7X7X5XF     O / $ < 6 6 9 q 6 T 7X7X7X7X7X7X7X7X7X7X7X7X7X7X7X7X7X7X7X7X7X7X7X7X7X7X7X",
"7X7X7X7X7X7X7X7X7X7X7X7X7X7X7X7X7X7X7X7X7X7X7X7X7X7XK.v.X.b I $ # 6 5 5 5 u T.6X7X7X7X7X7X7X7X7X7X7X7X7X7X7X7X7X7X7X7X7X7X7X7X7X",
"7X7X7X7X7X7X7X7X7X7X7X7X7X7X7X7X7X7X7X7X7X7X7X7X7X2XY.{ { t.$Xa.W h f d d T.G.# S S U.7X7X7X7X7X7X7X7X7X7X7X7X7X7X7X7X7X7X7X7X7X",
"7X7X7X7X7X7X7X7X7X7X7X7X7X7X7X7X7X7X7X7X7X7X7X7X7X5X' l.f.w.s.L s.^ e.i.s.( 7X7X7X7X7X7X7X7X7X7X7X7X7X7X7X7X7X7X7X7X7X7X7X7X7X7X",
"7X7X7X7X7X7X7X7X7X7X7X7X7X7X7X7X7X7X7X7X7X7X7X7X7X<Xo.] ( ..a.s.w.g.+.p.s.b 7X7X7X7X7X7X7X7X7X7X7X7X7X7X7X7X7X7X7X7X7X7X7X7X7X7X",
"7X7X7X7X7X7X7X7X7X7X7X7X7X7X7X7X7X7X7X7X7X7X7X7X7X7XoX} k.f.@ c f..._ i b ..7X7X7X7X7X7X7X7X7X7X7X7X7X7X7X7X7X7X7X7X7X7X7X7X7X7X",
"7X7X7X7X7X7X7X7X7X7X7X7X7X7X7X7X7X7X7X7X7X7X7X7X7X7Xz.v./ X - i O.2 o.G 2 ) 7X7X7X7X7X7X7X7X7X7X7X7X7X7X7X7X7X7X7X7X7X7X7X7X7X7X",
"7X7X7X7X7X7X7X7X7X7X7X7X7X7X7X7X7X7X7X7X7X7X7X7X7Xc.f.n.~ o : . w ; q : - 2 XX7X7X7X7X7X7X7X7X7X7X7X7X7X7X7X7X7X7X7X7X7X7X7X7X7X",
"7X7X7X7X7X7X7X7X7X7X7X7X7X7X7X7X7X7X7X7X7X7X7X7X7X%X( b.X.c 8 t.% ; o q o 2 *X7X7X7X7X7X7X7X7X7X7X7X7X7X7X7X7X7X7X7X7X7X7X7X7X7X",
"7X7X7X7X7X7X7X7X7X7X7X7X7X7X7X7X7X7X7X7X7X7X7X7X7X7XX.b.X.m.l. .e.u u t.j x.7X7X7X7X7X7X7X7X7X7X7X7X7X7X7X7X7X7X7X7X7X7X7X7X7X7X",
"7X7X7X7X7X7X7X7X7X7X7X7X7X7X7X7X7X7X7X7X7X7X7X7X7X7X}.] v.n.) ` ] { X.} h.>X7X7X7X7X7X7X7X7X7X7X7X7X7X7X7X7X7X7X7X7X7X7X7X7X7X7X",
"7X7X7X7X7X7X7X7X7X7X7X7X7X7X7X7X7X7X7X7X7X7X7X7X7X7Xc./ X.[ b.l.( f.{ ' z.7X7X7X7X7X7X7X7X7X7X7X7X7X7X7X7X7X7X7X7X7X7X7X7X7X7X7X",
"7X7X7X7X7X7X7X7X7X7X7X7X7X7X7X7X7X7X7X7X7X7X7X7X2X,.j.{ ) [ X.m.[ b.n.O.|.7X7X7X7X7X7X7X7X7X7X7X7X7X7X7X7X7X7X7X7X7X7X7X7X7X7X7X",
"7X7X7X7X7X7X7X7X7X7X7X7X7X7X7X7X7X7X7X7X7X7X7X7XW.&.o.f.l.[ n.l.[ k.f.%X7X7X7X7X7X7X7X7X7X7X7X7X7X7X7X7X7X7X7X7X7X7X7X7X7X7X7X7X",
"7X7X7X7X7X7X7X7X7X7X7X7X7X7X7X7X7X7X7X7X7X7X7X7Xy.2.s ] v.l.` / ~ ) ! 7X7X7X7X7X7X7X7X7X7X7X7X7X7X7X7X7X7X7X7X7X7X7X7X7X7X7X7X7X",
"7X7X7X7X7X7X7X7X7X7X7X7X7X7X7X7X7X7X7X7X7X7X7X7X<.0.:.s D G [ x.5X2XXX7X7X7X7X7X7X7X7X7X7X7X7X7X7X7X7X7X7X7X7X7X7X7X7X7X7X7X7X7X",
"7X7X7X7X7X7X7X7X7X7X7X7X7X7X7X7X7X7X7X7X7X7X7X7Xt :.8.q.,.:.@.W.7X7X7X7X7X7X7X7X7X7X7X7X7X7X7X7X7X7X7X7X7X7X7X7X7X7X7X7X7X7X7X7X",
"7X7X7X7X7X7X7X7X7X7X7X7X7X7X7X7X7X7X7X7X7X7X7X*XM.y q.>.0.0.s y.7X7X7X7X7X7X7X7X7X7X7X7X7X7X7X7X7X7X7X7X7X7X7X7X7X7X7X7X7X7X7X7X",
"7X7X7X7X7X7X7X7X7X7X7X7X7X7X7X7X7X7X7X7X7X7X7X@XN.V.6.M.>.9.n H 7X7X7X7X7X7X7X7X7X7X7X7X7X7X7X7X7X7X7X7X7X7X7X7X7X7X7X7X7X7X7X7X",
"7X7X7X7X7X7X7X7X7X7X7X7X7X7X7X7X7X7X7X7X7X7X7X/.*.=Xt A.N.#.C.=.<X7X7X7X7X7X7X7X7X7X7X7X7X7X7X7X7X7X7X7X7X7X7X7X7X7X7X7X7X7X7X7X",
"7X7X7X7X7X7X7X7X7X7X7X7X7X7X7X7X7X7X7X7X7X7X7Xu.;.6XB.C.Z.N.Z.M  X7X7X7X7X7X7X7X7X7X7X7X7X7X7X7X7X7X7X7X7X7X7X7X7X7X7X7X7X7X7X7X",
"7X7X7X7X7X7X7X7X7X7X7X7X7X7X7X7X7X7X7X7X7X7X6X,.s 7X!.A.H A.4.p r.7X7X7X7X7X7X7X7X7X7X7X7X7X7X7X7X7X7X7X7X7X7X7X7X7X7X7X7X7X7X7X",
"7X7X7X7X7X7X7X7X7X7X7X7X7X7X7X7X7X7X7X7X7X7X2Xt y.7X*X*.9.3.1.:.&.,X7X7X7X7X7X7X7X7X7X7X7X7X7X7X7X7X7X7X7X7X7X7X7X7X7X7X7X7X7X7X",
"7X7X7X7X7X7X7X7X7X7X7X7X7X7X7X7X7X7X7X7X7X7XOXM.J.7X7Xa 8.7.7.>.H H 7X7X7X7X7X7X7X7X7X7X7X7X7X7X7X7X7X7X7X7X7X7X7X7X7X7X7X7X7X7X",
"7X7X7X7X7X7X7X7X7X7X7X7X7X7X7X7X7X7X7X7X7X7XV.=. X7X7XW.-.;.9.N.M A.4.7X7X7X7X7X7X7X7X7X7X7X7X7X7X7X7X7X7X7X7X7X7X7X7X7X7X7X7X7X",
"7X7X7X7X7X7X7X7X7X7X7X7X7X7X7X7X7X7X7X7X7X6Xm ;.OX7X7X1XJ S.J A.J 3.-.Y 7X7X7X7X7X7X7X7X7X7X7X7X7X7X7X7X7X7X7X7X7X7X7X7X7X7X7X7X",
"7X7X7X7X7X7X7X7X7X7X7X7X7X7X7X7X7X7X7X7X7XK.7.-.&X7X7X7X4.-.N.N.7.H q.7.u.7X7X7X7X7X7X7X6X$X$X_.E.7X7X7X7X7X7X7X7X7X7X7X7X7X7X7X",
"7X7X7X7X7X7X7X7X7X7X7X7X7X7X7X7X7X7X7X7X7Xr.#.%.&X7X7X7XOX$.<.,.0.0.:.:.y 7X7X7X>X+X'.I.R.E.(.#X$X7X7X7X7X7X7X7X7X7X7X7X7X7X7X7X",
"7X7X7X7X7X7X7X7X7X7X7X7X7X7X7X7X7X7X7X7X7X-X%.H.7X7X7X7X7X>.<.<.:.:.K 1.K - o.| 7 L..X=X>X7X7X7X7X7X7X7X7X7X7X7X7X7X7X7X7X7X7X7X",
"7X7X7X7X7X7X7X7X7X7X7X7X7X7X7X7X7X7X7X7X7X@XX 7X7X7X7X7X7Xu.<.2.:.H Q.7X7Xv ; , r ^.1X7X7X7X7X7X7X7X7X7X7X7X7X7X7X7X7X7X7X7X7X7X",
"7X7X7X7X7X7X7X7X7X7X7X7X7X7X7X7X7X7X7X7X:X> % ,X7X7X7X7X6Xz.z Z P P O.7X7XT.4 Q | o.T /.*X7X7X7X7X7X7X7X7X7X7X7X7X7X7X7X7X7X7X7X",
"7X7X7X7X7X7X7X7X7X7X7X7X7X7X7X7X7X7X7X7X> 9 # r 7X7X7X7X7XF.P l U V T 7X7X7Xr 3 w T.'.+XJ.F.#X1X7X7X7X7X7X7X7X7X7X7X7X7X7X7X7X7X",
"7X7X7X7X7X7X7X7X7X7X7X7X7X7X7X7X7X7X&Xr 3 w w e T 5X7X7X7XP.z @X7Xg I 7X7X7X|.* D.E ~.7X7X#XJ.E./.*X7X7X7X7X7X7X7X7X7X7X7X7X7X7X",
"7X7X7X7X7X7X7X7X7X7X7X7X7X7X7X7X7X1XS 7 O.o.> >XF. X7X7X7XT g 7X7X$ A 7X7X7X@XE W >X_.F.#X7X7X=X(.].(.#X7X7X7X7X7X7X7X7X7X7X7X7X",
"7X7X7X7X7X7X7X7X7X7X7X7X7X7X7X7X@XD.J.E.| =X. 7X3XF.*X7X7Xg V 7X7Xl V 7X7X7X7X XE.J.7X*XU.~.6X7X7X,X#X/.'.7X7X7X7X7X7X7X7X7X7X7X",
"7X7X7X7X7X7X7X7X7X7X7X7X7X7X7X/.I.D.,X1X5.~.H.{.7X#XR.<X>Xz E 7X7Xg g 7X7X7X7X*XE.E.+X7X<X(./.*X7X7X7X7X7X7X7X7X7X7X7X7X7X7X7X7X",
"7X7X7X7X7X7X7X7X7X7X7X7X7X5XE./.D.>X7X*XE.7XW 7X7X7X'.].P.x L.7X7Xk g 7X7X7X7X7XJ.(.U.,X7X7X'.+X{.1X7X7X7X7X7X7X7X7X7X7X7X7X7X7X",
"7X7X7X7X7X7X7X7X7X7X7X7X=X_.E.I.-X7X7XI.*X3Xr.7X7X7X5X{.^.z '.7X7Xg g 7X7X7X7X7X+X_.'./.7X7X7X+X#X$X-X7X7X7X7X7X7X7X7X7X7X7X7X7X",
"7X7X7X7X7X7X7X7X7X7X7X*X*X(.(.*X7X7X3X/.;X=XP.7X7X7X7X<XD.z *X7X7Xg g 7X7X7X7X7X>X/.=X_.@X7X7X7X*X.X@X7X7X7X7X7X7X7X7X7X7X7X7X7X",
"7X7X7X7X7X7X7X7X7X7X7X.XU.*X.X7X7X7X$XJ.7X*XT.7X7X7X7X7X$ g 7X7X7Xg l 7X7X7X7X7X7XU.*X@X{.<X7X7X7X7X7X7X7X7X7X7X7X7X7X7X7X7X7X7X",
"7X7X7X7X7X7X7X7X7X7X7X1X_.'.7X7X7X7X/.'.7X*XI.7X7X7X7X*XC N 7X7X7Xg l 6X7X7X7X7X7X*X/.5X#X+X7X7X7X7X7X7X7X7X7X7X7X7X7X7X7X7X7X7X",
"7X7X7X7X7X7X7X7X7X7X7X6X1X7X7X7X7X7XU.$X7X$X~.7X7X7X7X^.V E 7X7X7Xg x 6X7X7X7X7X7X,X].,X*X].7X7X7X7X7X7X7X7X7X7X7X7X7X7X7X7X7X7X",
"7X7X7X7X7X7X7X7X7X7X7X7X7X7X7X7X7X*X@X:X7X$XL.7X7X7X7Xd.C F.7X7X6Xl l 5X7X7X7X7X7X7X-X7X7X7X7X7X7X7X7X7X7X7X7X7X7X7X7X7X7X7X7X7X",
"7X7X7X7X7X7X7X7X7X7X7X7X7X7X7X7X7X+X[.7X7X=XI.7X7X7X7Xk C '.7X7X<Xx N 1X7X7X7X7X7X7X7X7X7X7X7X7X7X7X7X7X7X7X7X7X7X7X7X7X7X7X7X7X",
"7X7X7X7X7X7X7X7X7X7X7X7X7X7X7X7X7X/.#X7X7X].E.7X7X7X*XV V =X7X7X,XV V 1X7X7X7X7X7X7X7X7X7X7X7X7X7X7X7X7X7X7X7X7X7X7X7X7X7X7X7X7X",
"7X7X7X7X7X7X7X7X7X7X7X7X7X7X7X7X7X/.3X7X7X].'.7X7X7X(.Z g 7X7X7X*XC V -X7X7X7X7X7X7X7X7X7X7X7X7X7X7X7X7X7X7X7X7X7X7X7X7X7X7X7X7X",
"7X7X7X7X7X7X7X7X7X7X7X7X7X7X7X7X7X7X7X7X7X,X4X7X7X7Xd.A I 7X7X7X$XC Z *X7X7X7X7X7X7X7X7X7X7X7X7X7X7X7X7X7X7X7X7X7X7X7X7X7X7X7X7X",
"7X7X7X7X7X7X7X7X7X7X7X7X7X7X7X7X7X7X7X7X7X7X7X7X7X7XN A W 7X7X7X@XC V *X7X7X7X7X7X7X7X7X7X7X7X7X7X7X7X7X7X7X7X7X7X7X7X7X7X7X7X7X",
"7X7X7X7X7X7X7X7X7X7X7X7X7X7X7X7X7X7X7X7X7X7X7X7X7X5Xl A Q.7X7X7X+XV V *X7X7X7X7X7X7X7X7X7X7X7X7X7X7X7X7X7X7X7X7X7X7X7X7X7X7X7X7X",
"7X7X7X7X7X7X7X7X7X7X7X7X7X7X7X7X7X7X7X7X7X7X7X7X7X[.C C +X7X7X7X[.V V #X7X7X7X7X7X7X7X7X7X7X7X7X7X7X7X7X7X7X7X7X7X7X7X7X7X7X7X7X",
"7X7X7X7X7X7X7X7X7X7X7X7X7X7X7X7X7X7X7X7X7X7X7X7X7XD.A z 1X7X7X7X`.Z V @X7X7X7X7X7X7X7X7X7X7X7X7X7X7X7X7X7X7X7X7X7X7X7X7X7X7X7X7X",
"7X7X7X7X7X7X7X7X7X7X7X7X7X7X7X7X7X7X7X7X7X7X7X7X7XN P k 7X7X7X7X(.Z C |.7X7X7X7X7X7X7X7X7X7X7X7X7X7X7X7X7X7X7X7X7X7X7X7X7X7X7X7X",
"7X7X7X7X7X7X7X7X7X7X7X7X7X7X7X7X7X7X7X7X7X7X7X7X;XV A U 7X7X7X7XQ.P P  X7X7X7X7X7X7X7X7X7X7X7X7X7X7X7X7X7X7X7X7X7X7X7X7X7X7X7X7X",
"7X7X7X7X7X7X7X7X7X7X7X7X7X7X7X7X7X7X7X7X7X7X7X7X~.P A L.7X7X7X7XO.5 0 R 7X7X7X7X7X7X7X7X7X7X7X7X7X7X7X7X7X7X7X7X7X7X7X7X7X7X7X7X",
"7X7X7X7X7X7X7X7X7X7X7X7X7X7X7X7X7X7X7X7X7X7X7X7XB 0 $ *X7X7X7X7XB : > : . T.7X7X7X7X7X7X7X7X7X7X7X7X7X7X7X7X7X7X7X7X7X7X7X7X7X7X",
"7X7X7X7X7X7X7X7X7X7X7X7X7X7X7X7X7X7X7X7X7X7X7X].. > & $X7X7X7X7X).B . & = . 5 5X7X7X7X7X7X7X7X7X7X7X7X7X7X7X7X7X7X7X7X7X7X7X7X7X",
"7X7X7X7X7X7X7X7X7X7X7X7X7X7X7X7X7X7X7X7X7X7X7X. 1 7 & _.7X7X7X7X7X7X7X>X+X.X+X5X7X7X7X7X7X7X7X7X7X7X7X7X7X7X7X7X7X7X7X7X7X7X7X7X",
"7X7X7X7X7X7X7X7X7X7X7X7X7X7X7X7X7X7X7X7X7X7X7X: > = 5 7X7X7X7X7X7X7X7X7X7X7X7X7X7X7X7X7X7X7X7X7X7X7X7X7X7X7X7X7X7X7X7X7X7X7X7X7X",
"7X7X7X7X7X7X7X7X7X7X7X7X7X7X7X7X7X7X7X7X7X7X7XE.5 P.7X7X7X7X7X7X7X7X7X7X7X7X7X7X7X7X7X7X7X7X7X7X7X7X7X7X7X7X7X7X7X7X7X7X7X7X7X7X"
};
