/* XPM */
static char *_2749_2fc3f41fd223d8c22e32a105520f0bca60a455f832d279b2c69f94d85ef5d293[] = {
/* columns rows colors chars-per-pixel */
"64 64 249 2 ",
"   c #177F00",
".  c #297F19",
"X  c #78727A",
"o  c #1F8404",
"O  c #24880A",
"+  c #278916",
"@  c #2D8D15",
"#  c #268419",
"$  c #2C8419",
"%  c #2C8B1A",
"&  c #33881B",
"*  c #328C1B",
"=  c #2E9317",
"-  c #329715",
";  c #35941B",
":  c #39951B",
">  c #359B1B",
",  c #3A9B1C",
"<  c #2FA80C",
"1  c #34A717",
"2  c #3BA41D",
"3  c #3CAB1D",
"4  c #38B716",
"5  c #3DB31C",
"6  c #3CBB1C",
"7  c #3E9A24",
"8  c #459B1E",
"9  c #47A51E",
"0  c #41AC1E",
"q  c #55AA1B",
"w  c #44B41E",
"e  c #44BC1E",
"r  c #48BE1F",
"t  c #63B709",
"y  c #449B28",
"u  c #46A520",
"i  c #4BAC20",
"p  c #5AAD21",
"a  c #4DB221",
"s  c #45BD25",
"d  c #57B722",
"f  c #57A93D",
"g  c #5FB53E",
"h  c #64B523",
"j  c #33DD08",
"k  c #3DC31C",
"l  c #3DC918",
"z  c #3DD618",
"x  c #2AE002",
"c  c #38E608",
"v  c #3BE40D",
"b  c #3DE313",
"n  c #3AE611",
"m  c #3DE21A",
"M  c #41C51D",
"N  c #4AC51D",
"B  c #42CA1C",
"V  c #4ACB1E",
"C  c #43D21C",
"Z  c #4CD31F",
"A  c #45DC1C",
"S  c #4CDB1A",
"D  c #4AEC08",
"F  c #53EE0C",
"G  c #59EE0A",
"H  c #55F109",
"J  c #43E415",
"K  c #4CE714",
"L  c #44E41B",
"P  c #4BE51D",
"I  c #45EA1C",
"U  c #4BEC1D",
"Y  c #54EC13",
"T  c #5AED16",
"R  c #52E51E",
"E  c #5BE71F",
"W  c #54EC1B",
"Q  c #5BED1B",
"!  c #4AF51A",
"~  c #4BF31C",
"^  c #54F21D",
"/  c #5BF318",
"(  c #61EA0E",
")  c #6DF10E",
"_  c #63EE14",
"`  c #66ED1B",
"'  c #72EF1A",
"]  c #65F115",
"[  c #6BF11C",
"{  c #77F41A",
"}  c #4DCB20",
"|  c #5CC424",
" . c #56CA24",
".. c #4DD021",
"X. c #53D321",
"o. c #5AD424",
"O. c #55DB21",
"+. c #62C323",
"@. c #63C925",
"#. c #69C925",
"$. c #74C725",
"%. c #6CD125",
"&. c #66D826",
"*. c #75D928",
"=. c #7BDB2B",
"-. c #68D430",
";. c #4FE424",
":. c #57E325",
">. c #5AE423",
",. c #54EB21",
"<. c #5DEC22",
"1. c #5CF222",
"2. c #62EE23",
"3. c #6BED24",
"4. c #65E82B",
"5. c #73ED25",
"6. c #78E827",
"7. c #7DED29",
"8. c #63F224",
"9. c #6BF225",
"0. c #65F924",
"q. c #6BFE25",
"w. c #73F324",
"e. c #7CF123",
"r. c #75F228",
"t. c #7BF22A",
"y. c #77FB28",
"u. c #6AE939",
"i. c #7AEA37",
"p. c #6DF136",
"a. c #73F53B",
"s. c #56A540",
"d. c #68AE52",
"f. c #78B26A",
"g. c #70D24F",
"h. c #69E745",
"j. c #74E746",
"k. c #7CF248",
"l. c #7AE957",
"z. c #92DD18",
"x. c #8BF60B",
"c. c #83F31C",
"v. c #89F519",
"b. c #97FA1C",
"n. c #ADFE15",
"m. c #A7FD1A",
"M. c #B3FF1A",
"N. c #8CCE29",
"B. c #87D629",
"V. c #93DD2A",
"C. c #86E92B",
"Z. c #96E62A",
"A. c #84F323",
"S. c #8AF524",
"D. c #88FC25",
"F. c #84F32A",
"G. c #8CF42C",
"H. c #82FC2A",
"J. c #8CFA2D",
"K. c #93F524",
"L. c #9AF924",
"P. c #92F52D",
"I. c #9BF52C",
"U. c #93FC2D",
"Y. c #9CFA2C",
"T. c #8FF433",
"R. c #93F531",
"E. c #9AF533",
"W. c #95FB30",
"Q. c #9BF937",
"!. c #A3E92C",
"~. c #A9FB26",
"^. c #A5FB2D",
"/. c #AAFC2D",
"(. c #B5FF2C",
"). c #B8FE29",
"_. c #A6EB37",
"`. c #A4FA33",
"'. c #ABFC33",
"]. c #B5FF31",
"[. c #B5F937",
"{. c #BCFF31",
"}. c #C5FD35",
"|. c #D8FF3A",
" X c #8CEB46",
".X c #8CF24A",
"XX c #9BF646",
"oX c #9BEA56",
"OX c #89F357",
"+X c #9EF556",
"@X c #A6F846",
"#X c #BAFB44",
"$X c #B8ED5A",
"%X c #ADF053",
"&X c #A8F856",
"*X c #8BC277",
"=X c #8AD071",
"-X c #8BEA65",
";X c #95F564",
":X c #9AF273",
">X c #B8E96C",
",X c #AAF066",
"<X c #B7F768",
"1X c #A6F27D",
"2X c #B7F876",
"3X c #C5FF44",
"4X c #D1FD55",
"5X c #E3FF41",
"6X c #FFFE4D",
"7X c #C3FA68",
"8X c #D7FE6D",
"9X c #C9F777",
"0X c #D6FD79",
"qX c #97CD87",
"wX c #95EB82",
"eX c #A6ED88",
"rX c #A9F585",
"tX c #B2F08F",
"yX c #B8F688",
"uX c #ABE598",
"iX c #B7F499",
"pX c #BCDCBA",
"aX c #B9EDA5",
"sX c #CBF58D",
"dX c #D6FB8A",
"fX c #CBEC98",
"gX c #C6F89C",
"hX c #E9FD87",
"jX c #D6F8A9",
"kX c #D0EBB1",
"lX c #CBF5B6",
"zX c #DBF6B9",
"xX c #E5FFA5",
"cX c #E3FAB9",
"vX c #F9FDB3",
"bX c #D0EDC6",
"nX c #D7F3C3",
"mX c #E6F5C8",
"MX c #F1FDC8",
"NX c #E3EED6",
"BX c #EEF5DB",
"VX c #F7FDD7",
"CX c #E6EAEA",
"ZX c #EAF4E6",
"AX c #F9FAE7",
"SX c #F4EEF7",
"DX c #F8F5F6",
"FX c #FEF4FF",
"GX c #cd00cd",
/* pixels */
"GXGXGXGXGXGXGXGXGXGXGXGXGXGXGXGXGXGXGXGXGXGXGXGXGXCXeXj.u.p.u.u.h.-XtXeXFXGXGXGXGXGXGXGXGXGXGXGXGXGXGXGXGXGXGXGXGXGXGXGXGXGXGXGX",
"GXGXGXGXGXGXGXGXGXGXGXGXGXGXGXGXGXGXGXGXGXGXGXGX=XH [ t.F.F.A.w.t.e.' / D h.kXGXGXGXGXGXGXGXGXGXGXGXGXGXGXGXGXGXGXGXGXGXGXGXGXGX",
"GXGXGXGXGXGXGXGXGXGXGXGXGXGXGXGXGXGXGXGXGXGXGXu./ R.P.J.Q.c.T.E.G.5.F.9XG.w.( 2XFXGXGXGXGXGXGXGXGXGXGXGXGXGXGXGXGXGXGXGXGXGXGXGX",
"GXGXGXGXGXGXGXGXGXGXGXGXGXGXGXGXGXGXGXGXGXGXg.1XK.T.T.&XGXjX) 9.` h.P K A.P.G.c.yXGXGXGXGXGXGXGXGXGXGXGXGXGXGXGXGXGXGXGXGXGXGXGX",
"GXGXGXGXGXGXGXGXGXGXGXGXGXGXGXGXGXGXGXGXGXaXD <XP.G.&XE.AXGXcX4.T iX` W wXj.S.G.c.zXGXGXGXGXGXGXGXGXGXGXGXGXGXGXGXGXGXGXGXGXGXGX",
"GXGXGXGXGXGXGXGXGXGXGXGXGXGXGXGXGXGXGXGXFXW D.5.7.P.P.' ;X-XR.T ^ W 1.2.2.P VXS.C.M.NXGXGXGXGXGXGXGXGXGXGXGXGXGXGXGXGXGXGXGXGXGX",
"GXGXGXGXGXGXGXGXGXGXGXGXGXGXGXGXGXGXGXGXaXF j.m m 3.2.G.K.~.@X7XgX{ <.2.8.Q T I.R.G.)  XDXGXGXGXGXGXGXGXGXGXGXGXGXGXGXGXGXGXGXGX",
"GXGXGXGXGXGXGXGXGXGXGXGXGXGXGXGXGXGXGXFXE A h.;.<.P G.m L K AX( K.E.G.P R 3.T cXL.G.R.Y _ BXGXGXGXGXGXGXGXGXGXGXGXGXGXGXGXGXGXGX",
"GXGXGXGXGXGXGXGXGXGXGXGXGXGXGXGXGXGXFX-.D n n rXJ >.R.G.7.,.c L P r.<.1.,.U F.e.}.A.F.E.9.) FXGXGXGXGXGXGXGXGXGXGXGXGXGXGXGXGXGX",
"GXGXGXGXGXGXGXGXGXGXGXGXGXGXGXGXGXFX&.D lXiX4.J L 2.2.,.G.I.6.V 5.e 4 ; 1 Z <.T.G vX&XK D.9X9XGXGXGXGXGXGXGXGXGXGXGXGXGXGXGXGXGX",
"GXGXGXGXGXGXGXGXGXGXGXGXGXGXGXGXFX4.k.D GXZXm L L 3.P F.k $ % ; : V.> ; ; , P c DX0X%XE L P.Z.GXGXGXGXGXGXGXGXGXGXGXGXGXGXGXGXGX",
"GXGXGXGXGXGXGXGXGXGXGXGXGXGXGXGXl.Y :XT :X:.L L 9.L 2.m * ; : @ C.&.> ; : : * l h.#X}.I.' R S.fXGXGXGXGXGXGXGXGXGXGXGXGXGXGXGXGX",
"GXGXGXGXGXGXGXGXGXGXGXGXGXGXGXDXF 1.Q 2.b I L w.1  .U > : ; + ; # #.P.= ; ; ; * z y.P.A.VX XG.v.FXGXGXGXGXGXGXGXGXGXGXGXGXGXGXGX",
"GXGXGXGXGXGXGXGXGXGXGXGXGXGXGX-XT 2.8.,.P n [ k N.I M ; * p {.!.Z.}.}.I.1 ; ; , @ @.].G.t.|.P.v.mXGXGXGXGXGXGXGXGXGXGXGXGXGXGXGX",
"GXGXGXGXGXGXGXGXGXGXGXGXGXGXFXY / 8.8.L b rXs.e A >.! 2 u |.^.H.s ,.9.@.1.I > * ; + [.U.5.Y.^.S.sXGXGXGXGXGXGXGXGXGXGXGXGXGXGXGX",
"GXGXGXGXGXGXGXGXGXGXGXGXGXGXuXD tXQ R L L u.&.U U ~ 5 , *.* $ } } >.8.>.o.y.I 5 P $ | |.t.r.{.F.x.DXGXGXGXGXGXGXGXGXGXGXGXGXGXGX",
"GXGXGXGXGXGXGXGXGXGXGXGXGXGXj.c.VX3.P R L 2.7.<.U 3 : $.3 % ..U.J.X.2.8.2.9.4.z A 5 ; '.t.9.F.^.{ mXGXGXGXGXGXGXGXGXGXGXGXGXGXGX",
"GXGXGXGXGXGXGXGXGXGXGXGXGXSXF S.S.7.P 5.,.R P L A # , : # *.q.0.0.0.8.2.2.8.1.,.k 6 $ 6.F.7._.F.A.2XGXGXGXGXGXGXGXGXGXGXGXGXGXGX",
"GXGXGXGXGXGXGXGXGXGXGXGXGX$XF.<XG.3.U R.>.e.L P I B., 3 7.&.2 * * > V 8.8.} !.6.2.*.% d F.L F.e.Q.%XGXGXGXGXGXGXGXGXGXGXGXGXGXGX",
"GXGXGXGXGXGXGXGXGXGXGXGXGX6.}.sXG.z w.t.E 2.L U 1 V.p &.> * , 6 % C.=.F.<.} 8 3Xt.w.8 ; 8.m ].Y. X^.FXGXGXGXGXGXGXGXGXGXGXGXGXGX",
"GXGXGXGXGXGXGXGXGXGXGXGXFXG ~.G.3.P 3.5.5.m P L ;.B.d % ; ; 5 , * $.].P.1.8.# C.8.3.$.$ 4.R t.Y.R.c.mXGXGXGXGXGXGXGXGXGXGXGXGXGX",
"GXGXGXGXGXGXGXGXGXGXGXGXVXj.hXG.L K P 5.e.L P L Y.; ; ; ; * ; ; ; ; % a ^.1.2 i 8.U.V.9 6 ;.5.P.G.c.cXGXGXGXGXGXGXGXGXGXGXGXGXGX",
"GXGXGXGXGXGXGXGXGXGXGXGXAX' G.P.j -Xu.P 3.L U Z %.e ; * e 8.3 ; : ; ; ; * J.} ; y.C./.+.u L F.5.T.c.cXGXGXGXGXGXGXGXGXGXGXGXGXGX",
"GXGXGXGXGXGXGXGXGXGXGXGXBX_ R.R.v lXSX< I L ~ = !.3 * } q.o.* ; > > ; ; ; 2 1.. t.%.V.s 5 l 5.e.G.K.zXFXGXGXGXGXGXGXGXGXGXGXGXGX",
"GXGXGXGXGXGXGXGXGXGXGXGX9X[ R.P.` l GX .I P z =.6.h > ^ 9.* ; 7 ; , : ; ; , H.>  .[.9 V M 6 8.G.P.c.>XGXGXGXGXGXGXGXGXGXGXGXGXGX",
"GXGXGXGXGXGXGXGXGXGXGXGXzX_ T.T.r.< ZX2Xb L o.| 2 $ B 9.h ; > ; : ; ; ; ; i J.| 0 H.1 B M C ,.F.G.,XoXGXGXGXGXGXGXGXGXGXGXGXGXGX",
"GXGXGXGXGXGXGXGXGXGXGXGXZXD G.c.S.m T L.L L C.N > B I 8.* : ; , > ; s } 5 = Y.O.$ y.s 6 B M U t.A.VX~.GXGXGXGXGXGXGXGXGXGXGXGXGX",
"GXGXGXGXGXGXGXGXGXGXGXGXzX[ A.MX2Xb m 3.L 6 *.} V U U } 2 ; ; ; ; * q.9.1.1 r.1.% y.V * ~ M < /.+Xc.c.DXGXGXGXGXGXGXGXGXGXGXGXGX",
"GXGXGXGXGXGXGXGXGXGXGXGXdX' c.DX0XW E Z U > ; 0 1.L L %.i ; , ; ; ; L ..8.l 6 y.2 | X.& ! 1 f.8X{ ^.{ mXGXGXGXGXGXGXGXGXGXGXGXGX",
"GXGXGXGXGXGXGXGXGXGXGXGXdXQ E.c L.p.` R A * * s ,.L U =.% u $.% } 5 ; 2 3 O.> J.3 d ..> ~ 5 y '.&X<X' jXGXGXGXGXGXGXGXGXGXGXGXGX",
"GXGXGXGXGXGXGXGXGXGXGXGX9XT R.3.3X;Xq C.6 ; ; 2 I L ,.#.% B.; 0 ~ ; 7 > 5 6 6 J.y.#.6.; A ~ 2.G.C.c.0XjXGXGXGXGXGXGXGXGXGXGXGXGX",
"GXGXGXGXGXGXGXGXGXGXGXGXK.2.I.}.{.K.Z.*.> ; ; 2 ~ L J.i + B.$ ..9.=.% * M % ; W.Y.o.o.& C l 5.Y.[ P.v.kXGXGXGXGXGXGXGXGXGXGXGXGX",
"GXGXGXGXGXGXGXGXGXGXGXGXe.w.{.(.M.3.}., ; : * p 8.m t.u % V.+ 1.6.}.e.w R =.- |.S.8.&.; P 6 J.3.rXXXb.kXGXGXGXGXGXGXGXGXGXGXGXGX",
"GXGXGXGXGXGXGXGXGXGXGXGXe.S.{.~.MXQ.>XO > ; 2 d 9.L r.; * }.3.1.t.3 w e U.=.1 cX2X4.&.F.L 6 R.5.{ '.K.<XGXGXGXGXGXGXGXGXGXGXGXGX",
"GXGXGXGXGXGXGXGXGXGXGXGXi.e.).].~.&Xf.= : ; w o.8.L 1.% 8 y.Y.1.U 2 l y w.k *.xXMXv 1.R.I o.t.I.L.5X`.%XGXGXGXGXGXGXGXGXGXGXGXGX",
"GXGXGXGXGXGXGXGXGXGXGXGXrX6.3X(.(.^.@ : ; ; 0 O.U L <.* > 0.8.<.,.s 3 A l ; y.0XeXK L E.I =.2.e.$X6XA.&XGXGXGXGXGXGXGXGXGXGXGXGX",
"GXGXGXGXGXGXGXGXGXGXGXGX9Xu.<X(.(.L.% > > ; * U L P W * 7 1.1.u >.,.; * $ W p.MXc ,.2.*.} } 3.G.7X6X.X&XGXGXGXGXGXGXGXGXGXGXGXGX",
"GXGXGXGXGXGXGXGXGXGXGXGX1XY I.(.3XiXf y ; : * ~ P L ,.* % Y.L >.; 8.8.X.Y k.MX< U L 6.d > A ' 7Xm.4X2X.XGXGXGXGXGXGXGXGXGXGXGXGX",
"GXGXGXGXGXGXGXGXGXGXGXGXeXc.R.(.GX8XpXO > ; * ~ P L ,.* % !.L 8.<.} 8.Q rXmXz.1 ~ 6 R.; > I P.l.Q S.A.oXGXGXGXGXGXGXGXGXGXGXGXGX",
"GXGXGXGXGXGXGXGXGXGXGXGXmX_ Y.].cXGXDXg 7 ; * P U P 1.* = h (.P G.8.<.Q ^ Y K.P 6 2 F.$ w 8.^.v Q.dXS._.GXGXGXGXGXGXGXGXGXGXGXGX",
"GXGXGXGXGXGXGXGXGXGXGXGXDXG '.(.n.&Xk f ; ; ; A ; A 1.} * % {.I.3.F.G.F.H.` 6 ; % d a * >.P.5.{ vX@Xb.fXGXGXGXGXGXGXGXGXGXGXGXGX",
"GXGXGXGXGXGXGXGXGXGXGXGXFXx.I.@X7XS.! * * > * S * k ,.q.7 = h {.Y.K Y ).y $ * ; ; F.% ; 0.P.` 8XgXc.S.GXGXGXGXGXGXGXGXGXGXGXGXGX",
"GXGXGXGXGXGXGXGXGXGXGXGXGX Xt./.(.J.} $ d.- * 0.* 5 ,.8.e ; % C.3X0X7X<XW 8.0 $ C.0 * s 9.G.@XAXc.P.R.GXGXGXGXGXGXGXGXGXGXGXGXGX",
"GXGXGXGXGXGXGXGXGXGXGXGXGXoXw.{./.G.uX  AX- * >.2 > ,.t.1.* * 1 a.GXGXlXY } * 6.o.0 : O.2.c.VX4XA.G.%XGXGXGXGXGXGXGXGXGXGXGXGXGX",
"GXGXGXGXGXGXGXGXGXGXGXGXGX,Xe.^.`.R.n 6 O ; ; } :.$ =.E.9.;.2 % 1 Y ;X1XT 8.0.<.:.w > o.8.| S.C.@X{ mXGXGXGXGXGXGXGXGXGXGXGXGXGX",
"GXGXGXGXGXGXGXGXGXGXGXGXGXcXv.~.^.R.9.6 ; ; ; a q.= 8.R.G.F.U X.0 $ N / 2.8.2.0.8.2 % 0.,.y.P R.%Xx.FXGXGXGXGXGXGXGXGXGXGXGXGXGX",
"GXGXGXGXGXGXGXGXGXGXGXGXGXzX_ ~.~.F.H.s y ; ; 0 &.q.<.5.R.R.F.k <.q.>.E <.8.>.w * ; * 8.| N 3.R.A.oXGXGXGXGXGXGXGXGXGXGXGXGXGXGX",
"GXGXGXGXGXGXGXGXGXGXGXGXGXBXD 2XxX#XJ.i 3 2 ; % %.S 8.<.F.T.T.W.i = $ # * a @.@.* * w w.$ A E.G.c.BXGXGXGXGXGXGXGXGXGXGXGXGXGXGX",
"GXGXGXGXGXGXGXGXGXGXGXGXGXGX3.XXxXAX~.Q ; P * * &.f.a.` <.F.%.= 7.`.U.rXD.`.6.9 $ r O.M s.rX9.T.b.CXGXGXGXGXGXGXGXGXGXGXGXGXGXGX",
"GXGXGXGXGXGXGXGXGXGXGXGXGXGXeXK b.).{.P.S z k * r %.3 0.2.,.J.i $ , @.1 > . $ w 2.Q * 1 d.zX] T.t GXGXGXGXGXGXGXGXGXGXGXGXGXGXGX",
"GXGXGXGXGXGXGXGXGXGXGXGXGXGXBXF <.,.^.K.iXk.d.& % U.% 8.2.0.O.2.w % $ & 3 O.q.>.0 ; 3 * - a.Q D X GXGXGXGXGXGXGXGXGXGXGXGXGXGXGX",
"GXGXGXGXGXGXGXGXGXGXGXGXGXGXGXoXY ,.G.S.<X@Xg.j - 9 : - 1.y w ; X.q.<.1.y.O.* $ > B % 7 5.y.5.uXGXGXGXGXGXGXGXGXGXGXGXGXGXGXGXGX",
"GXGXGXGXGXGXGXGXGXGXGXGXGXGXGXFXu.OXBXc.G.G.H.nX<X, @ *Xw ` 1 2 * * s o.qXe., U J d.g U.XXK.u.GXGXGXGXGXGXGXGXGXGXGXGXGXGXGXGXGX",
"GXGXGXGXGXGXGXGXGXGXGXGXGXGXGXGXFX>.j.G.G.G.T.zX2XY O @ * 5 / c L ; 1 B 4 M ! l & @ + U.J.F CXGXGXGXGXGXGXGXGXGXGXGXGXGXGXGXGXGX",
"GXGXGXGXGXGXGXGXGXGXGXGXGXGXGXGXGXNXD W C.T.G.S.I.x GXO.+ O *XSX< l *XD ~ B < nX@ @.P.T.S.uXGXGXGXGXGXGXGXGXGXGXGXGXGXGXGXGXGXGX",
"GXGXGXGXGXGXGXGXGXGXGXGXGXGXGXGXGXGXl.J r.E.'.w.w.P D a.g.pXo o , *XqX1 ; ; ; 7 % 0 '.`.G CXGXGXGXGXGXGXGXGXGXGXGXGXGXGXGXGXGXGX",
"GXGXGXGXGXGXGXGXGXGXGXGXGXGXGXGXGXGXbXD R t.3.<.P ;.D FXtXa.S > - @ = 5 > @ O - 2X|.<.{ g.GXGXGXGXGXGXGXGXGXGXGXGXGXGXGXGXGXGXGX",
"GXGXGXGXGXGXGXGXGXGXGXGXGXGXGXGXGXGXFX7.L ,.2.2.L v L Q T T rX/ 1 2 Q Q / b.2X{ ` 2.L.,XGXGXGXGXGXGXGXGXGXGXGXGXGXGXGXGXGXGXGXGX",
"GXGXGXGXGXGXGXGXGXGXGXGXGXGXGXGXGXGXGXmXm.z R R v lXb Q 8.2.eXY OXK OXjXzXjXgXXXXXG.m.zXGXGXGXGXGXGXGXGXGXGXGXGXGXGXGXGXGXGXGXGX",
"GXGXGXGXGXGXGXGXGXGXGXGXGXGXGXGXGXGXGXGXnXn.[ 3.>.j U P <.k.:XF DXc iXsXFXGXGXGXFXyX[.GXGXGXGXGXGXGXGXGXGXGXGXGXGXGXGXGXGXGXGXGX",
"GXGXGXGXGXGXGXGXGXGXGXGXGXGXGXGXGXGXGXGXGXFX9Xn.`.R b L ,.Q W P j F.F.) zXGXFXGXlXx.mXGXGXGXGXGXGXGXGXGXGXGXGXGXGXGXGXGXGXGXGXGX",
"GXGXGXGXGXGXGXGXGXGXGXGXGXGXGXGXGXGXGXGXGXGXGXCX%Xm.t.wXJ R L P G.T.t.uXD F.+X@Xn.fXGXGXGXGXGXGXGXGXGXGXGXGXGXGXGXGXGXGXGXGXGXGX",
"GXGXGXGXGXGXGXGXGXGXGXGXGXGXGXGXGXGXGXGXGXGXGXGXGXkXZ.n.U.G.A.P.^.~.~.b.P.L.M.n.kXGXGXGXGXGXGXGXGXGXGXGXGXGXGXGXGXGXGXGXGXGXGXGX",
"GXGXGXGXGXGXGXGXGXGXGXGXGXGXGXGXGXGXGXGXGXGXGXGXGXGXGXmX$X[.3X#X7X7X7X7X>XdXsXSXGXGXGXGXGXGXGXGXGXGXGXGXGXGXGXGXGXGXGXGXGXGXGXGX"
};
