/* XPM */
static char *_4522_79ee9a18ac6bbb661e42c0c736bf9cce7b0131cfc661a22c260932923fdf04a2[] = {
/* columns rows colors chars-per-pixel */
"64 64 189 2 ",
"   c #4E2701",
".  c #6B3A09",
"X  c #713E0A",
"o  c #683E13",
"O  c #67411B",
"+  c #6F451D",
"@  c #744617",
"#  c #7E4914",
"$  c #75491C",
"%  c #7E4D1B",
"&  c #7F501F",
"*  c #7F5020",
"=  c #71502F",
"-  c #183052",
";  c #1F365D",
":  c #2A3649",
">  c #393F4D",
",  c #21375E",
"<  c #263B5F",
"1  c #283A5A",
"2  c #303E56",
"3  c #253C65",
"4  c #293E62",
"5  c #293F69",
"6  c #374359",
"7  c #2D4264",
"8  c #2B416A",
"9  c #314567",
"0  c #324669",
"q  c #354869",
"w  c #414C5D",
"e  c #565351",
"r  c #6D5F4F",
"t  c #77624C",
"y  c #786758",
"u  c #444E60",
"i  c #485263",
"p  c #495467",
"a  c #535B6A",
"s  c #5C5C6A",
"d  c #59626F",
"f  c #5E6776",
"g  c DimGray",
"h  c #716F6C",
"j  c #636A75",
"k  c #6C727B",
"l  c #737172",
"z  c #7B7B7A",
"x  c #824B15",
"c  c #81501F",
"v  c #835425",
"b  c #845C38",
"n  c #986E4A",
"m  c #896E54",
"M  c #8E765F",
"N  c #947861",
"B  c #947D6C",
"V  c #877B76",
"C  c #A87F60",
"Z  c #93894F",
"A  c #8C8458",
"S  c #8D8D59",
"D  c #908E58",
"F  c #92925A",
"G  c #AE9D57",
"H  c #BEB34C",
"J  c #B8AD58",
"K  c #BAB054",
"L  c #83817E",
"P  c #978472",
"I  c #AD886C",
"U  c #B38765",
"Y  c #B48B6B",
"T  c #AA8870",
"R  c #B9927A",
"E  c #BBB36A",
"W  c #C2B757",
"Q  c #C6B958",
"!  c #CABD5A",
"~  c #C59778",
"^  c #D09F7A",
"/  c #C6AE67",
"(  c #C5AE6B",
")  c #C8AF6F",
"_  c #C5B460",
"`  c #C9B564",
"'  c #CBBC62",
"]  c #D6BF6D",
"[  c #C4A279",
"{  c #D1A37E",
"}  c #E1A77B",
"|  c #D1C44C",
" . c #CDC556",
".. c #DBD45B",
"X. c #ECDF5C",
"o. c #EBE25A",
"O. c #EADD66",
"+. c #EADC68",
"@. c #EDE168",
"#. c #F4E363",
"$. c #FCEF65",
"%. c #F2E46A",
"&. c #F5E969",
"*. c #6D7581",
"=. c #757B83",
"-. c #7E838B",
";. c #888687",
":. c #82858B",
">. c #93918F",
",. c #8C8F95",
"<. c #8E9196",
"1. c #939495",
"2. c #9B9C9D",
"3. c #A39A84",
"4. c #B29E95",
"5. c #9FA092",
"6. c #B2AE81",
"7. c #BEBA86",
"8. c #ACA89F",
"9. c #B7A597",
"0. c #B7A79B",
"q. c #B9A89B",
"w. c #999FA3",
"e. c #9DA0A5",
"r. c #A6A5A5",
"t. c #A0A6AA",
"y. c #ABAAAA",
"u. c #B6AEA9",
"i. c #B9B1AA",
"p. c #A5A6B1",
"a. c #ABAEB2",
"s. c #ADB2B9",
"d. c #B3B4B6",
"f. c #BAB8B6",
"g. c #BBBBBB",
"h. c #CB9D80",
"j. c #D09E82",
"k. c #C9A486",
"l. c #D4A384",
"z. c #DAAA84",
"x. c #D1A48C",
"c. c #D7A988",
"v. c #DEAD8B",
"b. c #C8AE9A",
"n. c #DFA794",
"m. c #E3AF8D",
"M. c #ECB58B",
"N. c #EDB98F",
"B. c #E5B693",
"V. c #EDB795",
"C. c #E7B894",
"Z. c #EAB996",
"A. c #E7B59A",
"S. c #EDBC9A",
"D. c #F2BC94",
"F. c #F3BE9C",
"G. c #CBBDB2",
"H. c #C4BFBA",
"J. c #F7C29A",
"K. c #F3C29D",
"L. c #FEC89F",
"P. c #C6C1B5",
"I. c #C4C1BF",
"U. c #F7C8A5",
"Y. c #B8BDC2",
"T. c #BFC0C1",
"R. c #BEC4C9",
"E. c #C3C4C3",
"W. c #C4C8CB",
"Q. c #CDCCCC",
"!. c #D1CDCE",
"~. c #CBCFD2",
"^. c #CED1D4",
"/. c #D3D3D3",
"(. c #D2D7DA",
"). c #DADADA",
"_. c #E1DDDE",
"`. c #D1D3E2",
"'. c #DADFE4",
"]. c #DDE3E9",
"[. c #E4E1E2",
"{. c #E3E6E9",
"}. c #E8E8E9",
"|. c #EAEDF7",
" X c #ECF1F5",
".X c #EDF2F9",
"XX c #F4F4F4",
"oX c #F2F6FF",
"OX c #cd00cd",
/* pixels */
"OXOXOXOXOXOXOXOXOXOXOXOXOXOXOXOXOXOXOXOXOXOXOXOXOXOXOXOXOXOXOXOXOXOXOXOXOXOXOXOXOXOXOXOXOXOXOXOXOXOXOXOXOXOXOXOXOXOXOXOXOXOXOXOX",
"OXOXOXOXOXOXOXOXOXOXOXOXOXOXOXOXOXOXOXOXOXOXOXOXOXOXOXOXOXOXf.N m 3.~.OXOXOXOXOXOXOXOXOXOXOXOXOXOXOXOXOXOXOXOXOXOXOXOXOXOXOXOXOX",
"OXOXOXOXOXOXOXOXOXOXOXOXOXOXOXOXOXOXOXOXOXOXOXOXOXOXOX/.M o % * % % # + {.OXOXOXOXOXOXOXOXOXOXOXOXOXOXOXOXOXOXOXOXOXOXOXOXOXOXOX",
"OXOXOXOXOXOXOXOXOXOXOXOXOXOXOXOXOXOXOXOXOXOXOXOXOXOX0.. v v v * % % * v o {.OXOXOXOXOXOXOXOXOXOXOXOXOXOXOXOXOXOXOXOXOXOXOXOXOXOX",
"OXOXOXOXOXOXOXOXOXOXOXOXOXOXOXOXOXOXOXOXOXOXOXOXOXf.X v v v + n U Y n + % + OXOXOXOXOXOXOXOXOXOXOXOXOXOXOXOXOXOXOXOXOXOXOXOXOXOX",
"OXOXOXOXOXOXOXOXOXOXOXOXOXOXOXOXOXOXOXOXOXOXOXOX X. v v + Y U.K.K.S.F.U.Y   '.OXOXOXOXOXOXOXOXOXOXOXOXOXOXOXOXOXOXOXOXOXOXOXOXOX",
"OXOXOXOXOXOXOXOXOXOXOXOXOXOXOXOXOXOXOXOXOXOXOXOXP c v $ B.K.v.~ ~ v.C.B.B.C ~.OXOXOXOXOXOXOXOXOXOXOXOXOXOXOXOXOXOXOXOXOXOXOXOXOX",
"OXOXOXOXOXOXOXOXOXOXOXOXOXOXOXOXOXOXOXOXOXOXOXOX= v % k.A.C.z.G.).G.z.C.z.G.E.!.OXOXOXOXOXOXOXOXOXOXOXOXOXOXOXOXOXOXOXOXOXOXOXOX",
"OXOXOXOXOXOXOXOXOXOXOXOXOXOXOXOXOXOXOXOXOXOXOXOXO v b U.C.C.H.OXOXOXI.M.P.OXOX}./.OXOXOXOXOXOXOXOXOXOXOXOXOXOXOXOXOXOXOXOXOXOXOX",
"OXOXOXOXOXOXOXOXOXOXOXOXOXOXOXOXOXOXOXOXOXOXOX.X. & Y S.C.^ oXOXQ.OX X} ].[.XXOXy.OXOXOXOXOXOXOXOXOXOXOXOXOXOXOXOXOXOXOXOXOXOXOX",
"OXOXOXOXOXOXOXOXOXOXOXOXOXOXOXOXOXOXOXOXOXOXOXg.x % c.C.C.z.].OXOXOXQ.M.^.OXOXOX;.OXOXOXOXOXOXOXOXOXOXOXOXOXOXOXOXOXOXOXOXOXOXOX",
"OXOXOXOXOXOXOXOXOXOXOXOXOXOXOXOXOXOXOXOXOXOXOX Xo @ A.C.C.C.k.}.OX^.k.D.R Q.'.P /.OXOXOXOXOXOXOXOXOXOXOXOXOXOXOXOXOXOXOXOXOXOXOX",
"OXOXOXOXOXOXOXOXOXOXOXOXOXOXOXOXOXOXOXOXOXOXOXOXV # T v.B.B.C.z.~ M.C.c.I D.N.I XXOXOXOXOXOXOXOXOXOXOXOXOXOXOXOXOXOXOXOXOXOXOXOX",
"OXOXOXOXOXOXOXOXOXOXOXOXOXOXOXOXOXOXOXOXOXOXOXOX].  v.K.B.B.C.B.C.B.C.S.C.B.C.P OXOXOXOXOXOXOXOXOXOXOXOXOXOXOXOXOXOXOXOXOXOXOXOX",
"OXOXOXOXOXOXOXOXOXOXOXOXOXOXOXOXOXOXOXOXOXOXOXOXOX~.g { Z.B.C.C.B.B.S.~ S.B.J.z OXOXOXOXOXOXOXOXOXOXOXOXOXOXOXOXOXOXOXOXOXOXOXOX",
"OXOXOXOXOXOXOXOXOXOXOXOXOXOXOXOXOXOXOXOXOXOXOXOXOXOX}.P F.B.C.C.B.C.k.N K.J.t (.OXOXOXOXOXOXOXOXOXOXOXOXOXOXOXOXOXOXOXOXOXOXOXOX",
"OXOXOXOXOXOXOXOXOXOXOXOXOXOXOXOXOXOXOXOXOXOXOXOXOXOXOXR.B F.A.Z.C.C.z.S.L.y 2.OXOXOXOXOXOXOXOXOXOXOXOXOXOXOXOXOXOXOXOXOXOXOXOXOX",
"OXOXOXOXOXOXOXOXOXOXOXOXOXOXOXOXOXOXOXOXOXOXOXOXOXOXOX.X! J [ R x.A.A.R e a.OXOXOXOXOXOXOXOXOXOXOXOXOXOXOXOXOXOXOXOXOXOXOXOXOXOX",
"OXOXOXOXOXOXOXOXOXOXOXOXOXOXOXOXOXOXOXOXOXOXOXOXOXOXOX7.#.+.O.%...Q  .o.d.OXOXOXOXOXOXOXOXOXOXOXOXOXOXOXOXOXOXOXOXOXOXOXOXOXOXOX",
"OXOXOXOXOXOXOXOXOXOXOXOXOXOXOXOXOXOXOXOXOXOXOXOXOXOX|.| +.+.O.O.O.+.O.O.6.OXOXOXOXOXOXOXOXOXOXOXOXOXOXOXOXOXOXOXOXOXOXOXOXOXOXOX",
"OXOXOXOXOXOXOXOXOXOXOXOXOXOXOXOXOXOXOXOXOXOXOXOXOXOXP.X.+.+.+.+.+.+.O.%.J oXOXOXOXOXOXOXOXOXOXOXOXOXOXOXOXOXOXOXOXOXOXOXOXOXOXOX",
"OXOXOXOXOXOXOXOXOXOXOXOXOXOXOXOXOXOXOXOXOXOXOXOXOXOX7.O.+.+.+.+.+.+.+. .| `.OXOXOXOXOXOXOXOXOXOXOXOXOXOXOXOXOXOXOXOXOXOXOXOXOXOX",
"OXOXOXOXOXOXOXOXOXOXOXOXOXOXOXOXOXOXOXOXOXOXOXOXOXOXE O.+.+.+.+.+.+.+.W $.p.OXOXOXOXOXOXOXOXOXOXOXOXOXOXOXOXOXOXOXOXOXOXOXOXOXOX",
"OXOXOXOXOXOXOXOXOXOXOXOXOXOXOXOXOXOXOXOXOXOXOXOXOXOXK %.K +.+.+.+.+.+.Q #.8.OXOXOXOXOXOXOXOXOXOXOXOXOXOXOXOXOXOXOXOXOXOXOXOXOXOX",
"OXOXOXOXOXOXOXOXOXOXOXOXOXOXOXOXOXOXOXOXOXOXOXOXOXOXK O.Q %.+.+.+.+.+. .%.5.OXOXOXOXOXOXOXOXOXOXOXOXOXOXOXOXOXOXOXOXOXOXOXOXOXOX",
"OXOXOXOXOXOXOXOXOXOXOXOXOXOXOXOXOXOXOXOXOXOXOXOXOXOXH %.! @.+.+.+.+.+.W o.3.OXOXOXOXOXOXOXOXOXOXOXOXOXOXOXOXOXOXOXOXOXOXOXOXOXOX",
"OXOXOXOXOXOXOXOXOXOXOXOXOXOXOXOXOXOXOXOXOXOXOXOXOXOXZ ] G %.+.+.+.+.+._ n.:.OXOXOXOXOXOXOXOXOXOXOXOXOXOXOXOXOXOXOXOXOXOXOXOXOXOX",
"OXOXOXOXOXOXOXOXOXOXOXOXOXOXOXOXOXOXOXOXOXOXOXOXOXOX4.S.) O.+.+.+.+.+.` F.r.OXOXOXOXOXOXOXOXOXOXOXOXOXOXOXOXOXOXOXOXOXOXOXOXOXOX",
"OXOXOXOXOXOXOXOXOXOXOXOXOXOXOXOXOXOXOXOXOXOXOXOXOXOX9.S.) O.+.+.+.+.@.` F.w.OXOXOXOXOXOXOXOXOXOXOXOXOXOXOXOXOXOXOXOXOXOXOXOXOXOX",
"OXOXOXOXOXOXOXOXOXOXOXOXOXOXOXOXOXOXOXOXOXOXOXOXOXOX9.V.) O.+.+.+.+.+.' V.t.OXOXOXOXOXOXOXOXOXOXOXOXOXOXOXOXOXOXOXOXOXOXOXOXOXOX",
"OXOXOXOXOXOXOXOXOXOXOXOXOXOXOXOXOXOXOXOXOXOXOXOXOXOX9.V.) O.+.+.+.+.@.' m.s.OXOXOXOXOXOXOXOXOXOXOXOXOXOXOXOXOXOXOXOXOXOXOXOXOXOX",
"OXOXOXOXOXOXOXOXOXOXOXOXOXOXOXOXOXOXOXOXOXOXOXOXOXOXq.V./ O.+.+.+.+.O.' c.Y.OXOXOXOXOXOXOXOXOXOXOXOXOXOXOXOXOXOXOXOXOXOXOXOXOXOX",
"OXOXOXOXOXOXOXOXOXOXOXOXOXOXOXOXOXOXOXOXOXOXOXOXOXOX9.V./ O.+.+.O.+.O.! l.W.OXOXOXOXOXOXOXOXOXOXOXOXOXOXOXOXOXOXOXOXOXOXOXOXOXOX",
"OXOXOXOXOXOXOXOXOXOXOXOXOXOXOXOXOXOXOXOXOXOXOXOXOXOXq.V./ O.+.+.+.+.O.Q l.W.OXOXOXOXOXOXOXOXOXOXOXOXOXOXOXOXOXOXOXOXOXOXOXOXOXOX",
"OXOXOXOXOXOXOXOXOXOXOXOXOXOXOXOXOXOXOXOXOXOXOXOXOXOXi.N./ +.+.+.+.+.+.W j.~.OXOXOXOXOXOXOXOXOXOXOXOXOXOXOXOXOXOXOXOXOXOXOXOXOXOX",
"OXOXOXOXOXOXOXOXOXOXOXOXOXOXOXOXOXOXOXOXOXOXOXOXOXOXi.V.( +.+.+.+.+.+.W h.~.OXOXOXOXOXOXOXOXOXOXOXOXOXOXOXOXOXOXOXOXOXOXOXOXOXOX",
"OXOXOXOXOXOXOXOXOXOXOXOXOXOXOXOXOXOXOXOXOXOXOXOXOXOXi.V.( &.&.%.%.&.#. .~ (.OXOXOXOXOXOXOXOXOXOXOXOXOXOXOXOXOXOXOXOXOXOXOXOXOXOX",
"OXOXOXOXOXOXOXOXOXOXOXOXOXOXOXOXOXOXOXOXOXOXOXOXOXOXi.D.A F D S S F S A m.W.OXOXOXOXOXOXOXOXOXOXOXOXOXOXOXOXOXOXOXOXOXOXOXOXOXOX",
"OXOXOXOXOXOXOXOXOXOXOXOXOXOXOXOXOXOXOXOXOXOXOXOXOXOXb.D.V 3 5 8 5 5 3 s V.q.OXOXOXOXOXOXOXOXOXOXOXOXOXOXOXOXOXOXOXOXOXOXOXOXOXOX",
"OXOXOXOXOXOXOXOXOXOXOXOXOXOXOXOXOXOXOXOXOXOXOXOXOXOXc.U.y 8 9 6 : q 9 s z.r OXOXOXOXOXOXOXOXOXOXOXOXOXOXOXOXOXOXOXOXOXOXOXOXOXOX",
"OXOXOXOXOXOXOXOXOXOXOXOXOXOXOXOXOXOXOXOXOXOXOXOXOXOXt { - q 9 w a 0 0 > N w.OXOXOXOXOXOXOXOXOXOXOXOXOXOXOXOXOXOXOXOXOXOXOXOXOXOX",
"OXOXOXOXOXOXOXOXOXOXOXOXOXOXOXOXOXOXOXOXOXOXOXOXOXOXh Y ; q 9 i j 8 q : r g.OXOXOXOXOXOXOXOXOXOXOXOXOXOXOXOXOXOXOXOXOXOXOXOXOXOX",
"OXOXOXOXOXOXOXOXOXOXOXOXOXOXOXOXOXOXOXOXOXOXOXOXOXOX{.L 1 q 9 p *.9 0 w [.OXOXOXOXOXOXOXOXOXOXOXOXOXOXOXOXOXOXOXOXOXOXOXOXOXOXOX",
"OXOXOXOXOXOXOXOXOXOXOXOXOXOXOXOXOXOXOXOXOXOXOXOXOXOXOXOX6 7 9 p -.7 9 w OXOXOXOXOXOXOXOXOXOXOXOXOXOXOXOXOXOXOXOXOXOXOXOXOXOXOXOX",
"OXOXOXOXOXOXOXOXOXOXOXOXOXOXOXOXOXOXOXOXOXOXOXOXOXOXOXOXp 7 7 a <.4 9 w OXOXOXOXOXOXOXOXOXOXOXOXOXOXOXOXOXOXOXOXOXOXOXOXOXOXOXOX",
"OXOXOXOXOXOXOXOXOXOXOXOXOXOXOXOXOXOXOXOXOXOXOXOXOXOXOXOXf 7 9 a w.4 9 w OXOXOXOXOXOXOXOXOXOXOXOXOXOXOXOXOXOXOXOXOXOXOXOXOXOXOXOX",
"OXOXOXOXOXOXOXOXOXOXOXOXOXOXOXOXOXOXOXOXOXOXOXOXOXOXOXOX=.7 9 a a.4 9 u OXOXOXOXOXOXOXOXOXOXOXOXOXOXOXOXOXOXOXOXOXOXOXOXOXOXOXOX",
"OXOXOXOXOXOXOXOXOXOXOXOXOXOXOXOXOXOXOXOXOXOXOXOXOXOXOXOX,.4 9 a g.4 9 w OXOXOXOXOXOXOXOXOXOXOXOXOXOXOXOXOXOXOXOXOXOXOXOXOXOXOXOX",
"OXOXOXOXOXOXOXOXOXOXOXOXOXOXOXOXOXOXOXOXOXOXOXOXOXOXOXOXe.4 9 d E.1 9 w OXOXOXOXOXOXOXOXOXOXOXOXOXOXOXOXOXOXOXOXOXOXOXOXOXOXOXOX",
"OXOXOXOXOXOXOXOXOXOXOXOXOXOXOXOXOXOXOXOXOXOXOXOXOXOXOXOXa.1 7 j E.1 9 i OXOXOXOXOXOXOXOXOXOXOXOXOXOXOXOXOXOXOXOXOXOXOXOXOXOXOXOX",
"OXOXOXOXOXOXOXOXOXOXOXOXOXOXOXOXOXOXOXOXOXOXOXOXOXOXOXOXa.< 7 k Q.< 7 a OXOXOXOXOXOXOXOXOXOXOXOXOXOXOXOXOXOXOXOXOXOXOXOXOXOXOXOX",
"OXOXOXOXOXOXOXOXOXOXOXOXOXOXOXOXOXOXOXOXOXOXOXOXOXOXOXOXd.< 7 =.Q.< 7 j OXOXOXOXOXOXOXOXOXOXOXOXOXOXOXOXOXOXOXOXOXOXOXOXOXOXOXOX",
"OXOXOXOXOXOXOXOXOXOXOXOXOXOXOXOXOXOXOXOXOXOXOXOXOXOXOXOXf.3 7 -.E.4 7 k OXOXOXOXOXOXOXOXOXOXOXOXOXOXOXOXOXOXOXOXOXOXOXOXOXOXOXOX",
"OXOXOXOXOXOXOXOXOXOXOXOXOXOXOXOXOXOXOXOXOXOXOXOXOXOXOXOXf.< 4 ,.E.1 7 =.OXOXOXOXOXOXOXOXOXOXOXOXOXOXOXOXOXOXOXOXOXOXOXOXOXOXOXOX",
"OXOXOXOXOXOXOXOXOXOXOXOXOXOXOXOXOXOXOXOXOXOXOXOXOXOXOXOXf.3 4 2.E.< 4 :.OXOXOXOXOXOXOXOXOXOXOXOXOXOXOXOXOXOXOXOXOXOXOXOXOXOXOXOX",
"OXOXOXOXOXOXOXOXOXOXOXOXOXOXOXOXOXOXOXOXOXOXOXOXOXOXOXOXd.4 4 2.E.4 1 ,.OXOXOXOXOXOXOXOXOXOXOXOXOXOXOXOXOXOXOXOXOXOXOXOXOXOXOXOX",
"OXOXOXOXOXOXOXOXOXOXOXOXOXOXOXOXOXOXOXOXOXOXOXOXOXOXOXOXd.< 4 r.T., 4 1.OXOXOXOXOXOXOXOXOXOXOXOXOXOXOXOXOXOXOXOXOXOXOXOXOXOXOXOX",
"OXOXOXOXOXOXOXOXOXOXOXOXOXOXOXOXOXOXOXOXOXOXOXOXOXOXOXOXa.; ; u.W.p 2 2.OXOXOXOXOXOXOXOXOXOXOXOXOXOXOXOXOXOXOXOXOXOXOXOXOXOXOXOX",
"OXOXOXOXOXOXOXOXOXOXOXOXOXOXOXOXOXOXOXOXOXOXOXOXOXOXOXOXg.j j Q.OXH.>.}.OXOXOXOXOXOXOXOXOXOXOXOXOXOXOXOXOXOXOXOXOXOXOXOXOXOXOXOX",
"OXOXOXOXOXOXOXOXOXOXOXOXOXOXOXOXOXOXOXOXOXOXOXOXOXOXOXOXXXr.u.Q.W._._.d.).OXOXOXOXOXOXOXOXOXOXOXOXOXOXOXOXOXOXOXOXOXOXOXOXOXOXOX",
"OXOXOXOXOXOXOXOXOXOXOXOXOXOXOXOXOXOXOXOXOXOXOXOXOXOXOXOXT.}._.!.:.}.[.[.Q./.OXOXOXOXOXOXOXOXOXOXOXOXOXOXOXOXOXOXOXOXOXOXOXOXOXOX",
"OXOXOXOXOXOXOXOXOXOXOXOXOXOXOXOXOXOXOXOXOXOXOXOXOXOXOXOX/.u.}.[._.e g h ;.l XXOXOXOXOXOXOXOXOXOXOXOXOXOXOXOXOXOXOXOXOXOXOXOXOXOX",
"OXOXOXOXOXOXOXOXOXOXOXOXOXOXOXOXOXOXOXOXOXOXOXOXOXOXOXOXOX1.s h ;.V OX}.Q.E.XXOXOXOXOXOXOXOXOXOXOXOXOXOXOXOXOXOXOXOXOXOXOXOXOXOX",
"OXOXOXOXOXOXOXOXOXOXOXOXOXOXOXOXOXOXOXOXOXOXOXOXOXOXOXOXOXOXOXXX(.).OXOXOXOXOXOXOXOXOXOXOXOXOXOXOXOXOXOXOXOXOXOXOXOXOXOXOXOXOXOX"
};
