/* XPM */
static char *_061_44cf921017e023d9aa0e5bf57c4e428ac27aca72270878e7c8797bc52cf16333[] = {
/* columns rows colors chars-per-pixel */
"64 64 184 2 ",
"   c #4E2701",
".  c #6B3A09",
"X  c #713E0A",
"o  c #683E13",
"O  c #67411B",
"+  c #6F451D",
"@  c #744617",
"#  c #7E4914",
"$  c #7E4D1B",
"%  c #7E4F20",
"&  c #7F5020",
"*  c #71502F",
"=  c #183052",
"-  c #1F365D",
";  c #2A3649",
":  c #393F4D",
">  c #21375E",
",  c #263B5F",
"<  c #283A5A",
"1  c #303E56",
"2  c #253C65",
"3  c #293E62",
"4  c #293F69",
"5  c #374359",
"6  c #2D4264",
"7  c #2B416A",
"8  c #314567",
"9  c #324669",
"0  c #354869",
"q  c #414C5D",
"w  c #565351",
"e  c #6D5F4F",
"r  c #77624C",
"t  c #786758",
"y  c #444E60",
"u  c #495467",
"i  c #535B6A",
"p  c #5C5C6A",
"a  c #59626F",
"s  c #5E6776",
"d  c DimGray",
"f  c #716F6C",
"g  c #636A75",
"h  c #6C727B",
"j  c #737172",
"k  c #7B7B7A",
"l  c #804F1D",
"z  c #81501F",
"x  c #835425",
"c  c #986E4A",
"v  c #896E54",
"b  c #8E765F",
"n  c #947861",
"m  c #947D6C",
"M  c #877B76",
"N  c #A87F60",
"B  c #93894F",
"V  c #8C8458",
"C  c #8D8D59",
"Z  c #92925A",
"A  c #AE9D57",
"S  c #BEB34C",
"D  c #BAB054",
"F  c #83817E",
"G  c #978472",
"H  c #AD886C",
"J  c #B38765",
"K  c #B48B6B",
"L  c #AA8870",
"P  c #B9927A",
"I  c #BBB36A",
"U  c #C2B757",
"Y  c #C2BB54",
"T  c #C6B958",
"R  c #CABD5A",
"E  c #C59778",
"W  c #D09F7A",
"Q  c #C6AE67",
"!  c #C5AE6B",
"~  c #C8AF6F",
"^  c #C5B460",
"/  c #C9B564",
"(  c #CBBC62",
")  c #D6BF6D",
"_  c #D1A37E",
"`  c #CEB073",
"'  c #E1A77B",
"]  c #D1C44C",
"[  c #CDC556",
"{  c #DBD45B",
"}  c #ECDF5C",
"|  c #EBE25A",
" . c #EADD66",
".. c #EADC68",
"X. c #EDE168",
"o. c #F4E363",
"O. c #FCEF65",
"+. c #F2E46A",
"@. c #F5E969",
"#. c #6D7581",
"$. c #757B83",
"%. c #7E838B",
"&. c #888687",
"*. c #82858B",
"=. c #93918F",
"-. c #8C8F95",
";. c #8E9196",
":. c #939495",
">. c #9B9C9D",
",. c #A39A84",
"<. c #B29E95",
"1. c #9FA092",
"2. c #BEBA86",
"3. c #ACA89F",
"4. c #B7A597",
"5. c #B7A79B",
"6. c #B9A89B",
"7. c #999FA3",
"8. c #9DA0A5",
"9. c #A6A5A5",
"0. c #A0A6AA",
"q. c #ABAAAA",
"w. c #B6AEA9",
"e. c #B9B1AA",
"r. c #A5A6B1",
"t. c #ABAEB2",
"y. c #ADB2B9",
"u. c #B3B4B6",
"i. c #BAB8B6",
"p. c #BBBBBB",
"a. c #CB9D80",
"s. c #D09E82",
"d. c #C9A486",
"f. c #D4A384",
"g. c #DAAA84",
"h. c #D1A48C",
"j. c #D7A988",
"k. c #DEAD8B",
"l. c #C8AE9A",
"z. c #DFA794",
"x. c #E0AC85",
"c. c #E3AF8D",
"v. c #ECB58B",
"b. c #EDB98F",
"n. c #E5B693",
"m. c #EDB795",
"M. c #E7B894",
"N. c #EAB996",
"B. c #E7B59A",
"V. c #EDBC9A",
"C. c #F2BC94",
"Z. c #F3BE9C",
"A. c #CBBDB2",
"S. c #F7C29A",
"D. c #F3C29D",
"F. c #FEC89F",
"G. c #C6C1B5",
"H. c #C4C1BF",
"J. c #F7C8A5",
"K. c #B8BDC2",
"L. c #BFC0C1",
"P. c #BEC4C9",
"I. c #C3C4C3",
"U. c #C4C8CB",
"Y. c #CDCCCC",
"T. c #D1CDCE",
"R. c #CBCFD2",
"E. c #D3D3D3",
"W. c #D2D7DA",
"Q. c #DADADA",
"!. c #E1DDDE",
"~. c #D1D3E2",
"^. c #DADFE4",
"/. c #DDE3E9",
"(. c #E4E1E2",
"). c #E3E6E9",
"_. c #E8E8E9",
"`. c #F2EEEF",
"'. c #EAEDF7",
"]. c #ECF1F5",
"[. c #EDF2F9",
"{. c #F4F4F4",
"}. c #F2F6FF",
"|. c #cd00cd",
/* pixels */
"|.|.|.|.|.|.|.|.|.|.|.|.|.|.|.|.|.|.|.|.|.|.|.|.|.|.|.|.|.|.|.|.|.|.|.|.|.|.|.|.|.|.|.|.|.|.|.|.|.|.|.|.|.|.|.|.|.|.|.|.|.|.|.|.",
"|.|.|.|.|.|.|.|.|.|.|.|.|.|.|.|.|.|.|.|.|.|.|.|.|.|.|.|.|.R.,.v b e.|.|.|.|.|.|.|.|.|.|.|.|.|.|.|.|.|.|.|.|.|.|.|.|.|.|.|.|.|.|.",
"|.|.|.|.|.|.|.|.|.|.|.|.|.|.|.|.|.|.|.|.|.|.|.|.|.|.|.).+ # $ & % # o b E.|.|.|.|.|.|.|.|.|.|.|.|.|.|.|.|.|.|.|.|.|.|.|.|.|.|.|.",
"|.|.|.|.|.|.|.|.|.|.|.|.|.|.|.|.|.|.|.|.|.|.|.|.|.|.).. x & % $ x x x z . 3.|.|.|.|.|.|.|.|.|.|.|.|.|.|.|.|.|.|.|.|.|.|.|.|.|.|.",
"|.|.|.|.|.|.|.|.|.|.|.|.|.|.|.|.|.|.|.|.|.|.|.|.|.|.+ l + c K J c % & x x @ A.|.|.|.|.|.|.|.|.|.|.|.|.|.|.|.|.|.|.|.|.|.|.|.|.|.",
"|.|.|.|.|.|.|.|.|.|.|.|.|.|.|.|.|.|.|.|.|.|.|.|.|./.  K J.V.V.D.V.J.H + x x . _.|.|.|.|.|.|.|.|.|.|.|.|.|.|.|.|.|.|.|.|.|.|.|.|.",
"|.|.|.|.|.|.|.|.|.|.|.|.|.|.|.|.|.|.|.|.|.|.|.|.|.R.N M.N.M.k.E E k.V.n.* x $ G |.|.|.|.|.|.|.|.|.|.|.|.|.|.|.|.|.|.|.|.|.|.|.|.",
"|.|.|.|.|.|.|.|.|.|.|.|.|.|.|.|.|.|.|.|.|.|.|.|.Y.H.A.g.N.g.A.Q.G.j.n.V.W $ x * |.|.|.|.|.|.|.|.|.|.|.|.|.|.|.|.|.|.|.|.|.|.|.|.",
"|.|.|.|.|.|.|.|.|.|.|.|.|.|.|.|.|.|.|.|.|.|.|.E._.|.|.G.v.H.|.|.|.H.b.M.J.* x O |.|.|.|.|.|.|.|.|.|.|.|.|.|.|.|.|.|.|.|.|.|.|.|.",
"|.|.|.|.|.|.|.|.|.|.|.|.|.|.|.|.|.|.|.|.|.|.|.q.|.{.(.^.' ].|.Y.|.}.W M.D.K x X ].|.|.|.|.|.|.|.|.|.|.|.|.|.|.|.|.|.|.|.|.|.|.|.",
"|.|.|.|.|.|.|.|.|.|.|.|.|.|.|.|.|.|.|.|.|.|.|.&.|.|.|.E.v.T.|.|.|./.g.N.N.h.$ # L.|.|.|.|.|.|.|.|.|.|.|.|.|.|.|.|.|.|.|.|.|.|.|.",
"|.|.|.|.|.|.|.|.|.|.|.|.|.|.|.|.|.|.|.|.|.|.|.E.M ^.T.P V.d.R.|.).d.M.M.M.n.@ O ].|.|.|.|.|.|.|.|.|.|.|.|.|.|.|.|.|.|.|.|.|.|.|.",
"|.|.|.|.|.|.|.|.|.|.|.|.|.|.|.|.|.|.|.|.|.|.|.].H b.C.H h.N.v.E g.N.n.M.n.L @ M |.|.|.|.|.|.|.|.|.|.|.|.|.|.|.|.|.|.|.|.|.|.|.|.",
"|.|.|.|.|.|.|.|.|.|.|.|.|.|.|.|.|.|.|.|.|.|.|.|.G m.n.N.N.N.M.M.M.M.n.n.N.n.  /.|.|.|.|.|.|.|.|.|.|.|.|.|.|.|.|.|.|.|.|.|.|.|.|.",
"|.|.|.|.|.|.|.|.|.|.|.|.|.|.|.|.|.|.|.|.|.|.|.|.k S.n.V.E V.n.n.n.n.n.M._ t R.|.|.|.|.|.|.|.|.|.|.|.|.|.|.|.|.|.|.|.|.|.|.|.|.|.",
"|.|.|.|.|.|.|.|.|.|.|.|.|.|.|.|.|.|.|.|.|.|.|.|.E.t S.D.n d.N.n.M.n.n.D.m _.|.|.|.|.|.|.|.|.|.|.|.|.|.|.|.|.|.|.|.|.|.|.|.|.|.|.",
"|.|.|.|.|.|.|.|.|.|.|.|.|.|.|.|.|.|.|.|.|.|.|.|.|.7.t F.m.g.N.N.N.N.Z.n P.|.|.|.|.|.|.|.|.|.|.|.|.|.|.|.|.|.|.|.|.|.|.|.|.|.|.|.",
"|.|.|.|.|.|.|.|.|.|.|.|.|.|.|.|.|.|.|.|.|.|.|.|.|.|.r.w P B.m.h.P E I [ [.|.|.|.|.|.|.|.|.|.|.|.|.|.|.|.|.|.|.|.|.|.|.|.|.|.|.|.",
"|.|.|.|.|.|.|.|.|.|.|.|.|.|.|.|.|.|.|.|.|.|.|.|.|.|.}.K.} [ Y { @.X. .X.2.|.|.|.|.|.|.|.|.|.|.|.|.|.|.|.|.|.|.|.|.|.|.|.|.|.|.|.",
"|.|.|.|.|.|.|.|.|.|.|.|.|.|.|.|.|.|.|.|.|.|.|.|.|.|.|.I  ...X. .........] '.|.|.|.|.|.|.|.|.|.|.|.|.|.|.|.|.|.|.|.|.|.|.|.|.|.|.",
"|.|.|.|.|.|.|.|.|.|.|.|.|.|.|.|.|.|.|.|.|.|.|.|.|.|.}.D  ...............} G.|.|.|.|.|.|.|.|.|.|.|.|.|.|.|.|.|.|.|.|.|.|.|.|.|.|.",
"|.|.|.|.|.|.|.|.|.|.|.|.|.|.|.|.|.|.|.|.|.|.|.|.|.|.~.] [ .............. .2.|.|.|.|.|.|.|.|.|.|.|.|.|.|.|.|.|.|.|.|.|.|.|.|.|.|.",
"|.|.|.|.|.|.|.|.|.|.|.|.|.|.|.|.|.|.|.|.|.|.|.|.|.|.r.O.U .............. .I |.|.|.|.|.|.|.|.|.|.|.|.|.|.|.|.|.|.|.|.|.|.|.|.|.|.",
"|.|.|.|.|.|.|.|.|.|.|.|.|.|.|.|.|.|.|.|.|.|.|.|.|.|.9.@.R .......... .D +.D |.|.|.|.|.|.|.|.|.|.|.|.|.|.|.|.|.|.|.|.|.|.|.|.|.|.",
"|.|.|.|.|.|.|.|.|.|.|.|.|.|.|.|.|.|.|.|.|.|.|.|.|.|.1.o.R  .........+.T X.S |.|.|.|.|.|.|.|.|.|.|.|.|.|.|.|.|.|.|.|.|.|.|.|.|.|.",
"|.|.|.|.|.|.|.|.|.|.|.|.|.|.|.|.|.|.|.|.|.|.|.|.|.|.,.| U ..........X.R +.S }.|.|.|.|.|.|.|.|.|.|.|.|.|.|.|.|.|.|.|.|.|.|.|.|.|.",
"|.|.|.|.|.|.|.|.|.|.|.|.|.|.|.|.|.|.|.|.|.|.|.|.|.|.*.z.^  ......... .A ) B |.|.|.|.|.|.|.|.|.|.|.|.|.|.|.|.|.|.|.|.|.|.|.|.|.|.",
"|.|.|.|.|.|.|.|.|.|.|.|.|.|.|.|.|.|.|.|.|.|.|.|.|.|.9.D./ .......... .` V.<.|.|.|.|.|.|.|.|.|.|.|.|.|.|.|.|.|.|.|.|.|.|.|.|.|.|.",
"|.|.|.|.|.|.|.|.|.|.|.|.|.|.|.|.|.|.|.|.|.|.|.|.|.|.>.Z./ X......... .~ m.4.|.|.|.|.|.|.|.|.|.|.|.|.|.|.|.|.|.|.|.|.|.|.|.|.|.|.",
"|.|.|.|.|.|.|.|.|.|.|.|.|.|.|.|.|.|.|.|.|.|.|.|.|.|.0.m.(  .........X.~ m.4.|.|.|.|.|.|.|.|.|.|.|.|.|.|.|.|.|.|.|.|.|.|.|.|.|.|.",
"|.|.|.|.|.|.|.|.|.|.|.|.|.|.|.|.|.|.|.|.|.|.|.|.|.|.y.c.( X......... .~ V.4.|.|.|.|.|.|.|.|.|.|.|.|.|.|.|.|.|.|.|.|.|.|.|.|.|.|.",
"|.|.|.|.|.|.|.|.|.|.|.|.|.|.|.|.|.|.|.|.|.|.|.|.|.|.K.j.( X......... .! m.6.|.|.|.|.|.|.|.|.|.|.|.|.|.|.|.|.|.|.|.|.|.|.|.|.|.|.",
"|.|.|.|.|.|.|.|.|.|.|.|.|.|.|.|.|.|.|.|.|.|.|.|.|.|.U.f.(  ......... .! m.5.|.|.|.|.|.|.|.|.|.|.|.|.|.|.|.|.|.|.|.|.|.|.|.|.|.|.",
"|.|.|.|.|.|.|.|.|.|.|.|.|.|.|.|.|.|.|.|.|.|.|.|.|.|.U.s.T .......... .Q m.5.|.|.|.|.|.|.|.|.|.|.|.|.|.|.|.|.|.|.|.|.|.|.|.|.|.|.",
"|.|.|.|.|.|.|.|.|.|.|.|.|.|.|.|.|.|.|.|.|.|.|.|.|.|.R.s.U  ...........Q m.w.|.|.|.|.|.|.|.|.|.|.|.|.|.|.|.|.|.|.|.|.|.|.|.|.|.|.",
"|.|.|.|.|.|.|.|.|.|.|.|.|.|.|.|.|.|.|.|.|.|.|.|.|.|.E.a.Y X......... .Q m.e.|.|.|.|.|.|.|.|.|.|.|.|.|.|.|.|.|.|.|.|.|.|.|.|.|.|.",
"|.|.|.|.|.|.|.|.|.|.|.|.|.|.|.|.|.|.|.|.|.|.|.|.|.|.W.E [ @.@.+.+.@.@./ m.e.|.|.|.|.|.|.|.|.|.|.|.|.|.|.|.|.|.|.|.|.|.|.|.|.|.|.",
"|.|.|.|.|.|.|.|.|.|.|.|.|.|.|.|.|.|.|.|.|.|.|.|.|.|.U.x.V C Z C C C Z b C.e.|.|.|.|.|.|.|.|.|.|.|.|.|.|.|.|.|.|.|.|.|.|.|.|.|.|.",
"|.|.|.|.|.|.|.|.|.|.|.|.|.|.|.|.|.|.|.|.|.|.|.|.|.|.w.v.p 2 4 7 7 7 2 M C.l.|.|.|.|.|.|.|.|.|.|.|.|.|.|.|.|.|.|.|.|.|.|.|.|.|.|.",
"|.|.|.|.|.|.|.|.|.|.|.|.|.|.|.|.|.|.|.|.|.|.|.|.|.|.r j.p 6 0 ; 5 9 6 t F.j.|.|.|.|.|.|.|.|.|.|.|.|.|.|.|.|.|.|.|.|.|.|.|.|.|.|.",
"|.|.|.|.|.|.|.|.|.|.|.|.|.|.|.|.|.|.|.|.|.|.|.|.|.|.7.n : 8 9 i 5 9 9 = _ r |.|.|.|.|.|.|.|.|.|.|.|.|.|.|.|.|.|.|.|.|.|.|.|.|.|.",
"|.|.|.|.|.|.|.|.|.|.|.|.|.|.|.|.|.|.|.|.|.|.|.|.|.|.p.e ; 0 6 g u 9 0 - K f |.|.|.|.|.|.|.|.|.|.|.|.|.|.|.|.|.|.|.|.|.|.|.|.|.|.",
"|.|.|.|.|.|.|.|.|.|.|.|.|.|.|.|.|.|.|.|.|.|.|.|.|.|.|.(.q 8 6 #.u 8 0 < F ).|.|.|.|.|.|.|.|.|.|.|.|.|.|.|.|.|.|.|.|.|.|.|.|.|.|.",
"|.|.|.|.|.|.|.|.|.|.|.|.|.|.|.|.|.|.|.|.|.|.|.|.|.|.|.|.q 8 6 %.u 8 6 5 |.|.|.|.|.|.|.|.|.|.|.|.|.|.|.|.|.|.|.|.|.|.|.|.|.|.|.|.",
"|.|.|.|.|.|.|.|.|.|.|.|.|.|.|.|.|.|.|.|.|.|.|.|.|.|.|.|.q 8 6 ;.i 8 6 u |.|.|.|.|.|.|.|.|.|.|.|.|.|.|.|.|.|.|.|.|.|.|.|.|.|.|.|.",
"|.|.|.|.|.|.|.|.|.|.|.|.|.|.|.|.|.|.|.|.|.|.|.|.|.|.|.|.q 8 , 8.i 8 6 s |.|.|.|.|.|.|.|.|.|.|.|.|.|.|.|.|.|.|.|.|.|.|.|.|.|.|.|.",
"|.|.|.|.|.|.|.|.|.|.|.|.|.|.|.|.|.|.|.|.|.|.|.|.|.|.|.|.y 8 < y.i 8 6 $.|.|.|.|.|.|.|.|.|.|.|.|.|.|.|.|.|.|.|.|.|.|.|.|.|.|.|.|.",
"|.|.|.|.|.|.|.|.|.|.|.|.|.|.|.|.|.|.|.|.|.|.|.|.|.|.|.|.y 8 3 p.i 6 6 -.|.|.|.|.|.|.|.|.|.|.|.|.|.|.|.|.|.|.|.|.|.|.|.|.|.|.|.|.",
"|.|.|.|.|.|.|.|.|.|.|.|.|.|.|.|.|.|.|.|.|.|.|.|.|.|.|.|.q 8 < I.a 8 , 7.|.|.|.|.|.|.|.|.|.|.|.|.|.|.|.|.|.|.|.|.|.|.|.|.|.|.|.|.",
"|.|.|.|.|.|.|.|.|.|.|.|.|.|.|.|.|.|.|.|.|.|.|.|.|.|.|.|.y 8 < I.g 8 , t.|.|.|.|.|.|.|.|.|.|.|.|.|.|.|.|.|.|.|.|.|.|.|.|.|.|.|.|.",
"|.|.|.|.|.|.|.|.|.|.|.|.|.|.|.|.|.|.|.|.|.|.|.|.|.|.|.|.i 8 < Y.h 3 , u.|.|.|.|.|.|.|.|.|.|.|.|.|.|.|.|.|.|.|.|.|.|.|.|.|.|.|.|.",
"|.|.|.|.|.|.|.|.|.|.|.|.|.|.|.|.|.|.|.|.|.|.|.|.|.|.|.|.g 6 , Y.$.6 , u.|.|.|.|.|.|.|.|.|.|.|.|.|.|.|.|.|.|.|.|.|.|.|.|.|.|.|.|.",
"|.|.|.|.|.|.|.|.|.|.|.|.|.|.|.|.|.|.|.|.|.|.|.|.|.|.|.|.h 6 , I.*.3 , i.|.|.|.|.|.|.|.|.|.|.|.|.|.|.|.|.|.|.|.|.|.|.|.|.|.|.|.|.",
"|.|.|.|.|.|.|.|.|.|.|.|.|.|.|.|.|.|.|.|.|.|.|.|.|.|.|.|.k 6 2 I.;.3 , p.|.|.|.|.|.|.|.|.|.|.|.|.|.|.|.|.|.|.|.|.|.|.|.|.|.|.|.|.",
"|.|.|.|.|.|.|.|.|.|.|.|.|.|.|.|.|.|.|.|.|.|.|.|.|.|.|.|.%.3 , I.>.3 , u.|.|.|.|.|.|.|.|.|.|.|.|.|.|.|.|.|.|.|.|.|.|.|.|.|.|.|.|.",
"|.|.|.|.|.|.|.|.|.|.|.|.|.|.|.|.|.|.|.|.|.|.|.|.|.|.|.|.-.3 , I.>.3 , p.|.|.|.|.|.|.|.|.|.|.|.|.|.|.|.|.|.|.|.|.|.|.|.|.|.|.|.|.",
"|.|.|.|.|.|.|.|.|.|.|.|.|.|.|.|.|.|.|.|.|.|.|.|.|.|.|.|.:.2 > K.9.3 , u.|.|.|.|.|.|.|.|.|.|.|.|.|.|.|.|.|.|.|.|.|.|.|.|.|.|.|.|.",
"|.|.|.|.|.|.|.|.|.|.|.|.|.|.|.|.|.|.|.|.|.|.|.|.|.|.|.|.>.1 u I.u.> > t.|.|.|.|.|.|.|.|.|.|.|.|.|.|.|.|.|.|.|.|.|.|.|.|.|.|.|.|.",
"|.|.|.|.|.|.|.|.|.|.|.|.|.|.|.|.|.|.|.|.|.|.|.|.|.|.|.|._.=.p.|.I.g g K.|.|.|.|.|.|.|.|.|.|.|.|.|.|.|.|.|.|.|.|.|.|.|.|.|.|.|.|.",
"|.|.|.|.|.|.|.|.|.|.|.|.|.|.|.|.|.|.|.|.|.|.|.|.|.|.|.Q.i.!.(.Y.Y.w.9.{.|.|.|.|.|.|.|.|.|.|.|.|.|.|.|.|.|.|.|.|.|.|.|.|.|.|.|.|.",
"|.|.|.|.|.|.|.|.|.|.|.|.|.|.|.|.|.|.|.|.|.|.|.|.|.|.Y.Y.(.(.`.F T.!._.H.|.|.|.|.|.|.|.|.|.|.|.|.|.|.|.|.|.|.|.|.|.|.|.|.|.|.|.|.",
"|.|.|.|.|.|.|.|.|.|.|.|.|.|.|.|.|.|.|.|.|.|.|.|.|.{.j &.f d w Q.(._.q.E.|.|.|.|.|.|.|.|.|.|.|.|.|.|.|.|.|.|.|.|.|.|.|.|.|.|.|.|.",
"|.|.|.|.|.|.|.|.|.|.|.|.|.|.|.|.|.|.|.|.|.|.|.|.|.{.H.Y._.|.&.&.j w >.|.|.|.|.|.|.|.|.|.|.|.|.|.|.|.|.|.|.|.|.|.|.|.|.|.|.|.|.|.",
"|.|.|.|.|.|.|.|.|.|.|.|.|.|.|.|.|.|.|.|.|.|.|.|.|.|.|.|.|.|.Q.E.{.|.|.|.|.|.|.|.|.|.|.|.|.|.|.|.|.|.|.|.|.|.|.|.|.|.|.|.|.|.|.|."
};
