/* XPM */
static char *_48_bee1db1e01df49d73ca969a3fa77dd6ffb3b2126d5008a4094ce0d93907224c3[] = {
/* columns rows colors chars-per-pixel */
"64 64 153 2 ",
"   c #030303",
".  c #0D0D0D",
"X  c #12130E",
"o  c #141414",
"O  c #191A16",
"+  c #161618",
"@  c #171819",
"#  c #1B1B1C",
"$  c #1F201D",
"%  c #21221E",
"&  c #1F1F21",
"*  c #201F21",
"=  c #1F2022",
"-  c #242425",
";  c #282727",
":  c #272825",
">  c #2A2A26",
",  c #272728",
"<  c #282729",
"1  c #2B2B2C",
"2  c #2F302D",
"3  c #32322D",
"4  c #2F2F30",
"5  c #2D3030",
"6  c #333333",
"7  c #383837",
"8  c #3A3A36",
"9  c #3C3C3A",
"0  c #403E3B",
"q  c #3F403B",
"w  c #42433E",
"e  c #444443",
"r  c #474746",
"t  c #4A4A46",
"y  c #4B4B49",
"u  c #504F4F",
"i  c #4F514C",
"p  c #51514F",
"a  c #4F4E50",
"s  c #4F5152",
"d  c #545553",
"f  c #575857",
"g  c #595A56",
"h  c #575959",
"j  c #5C5D5B",
"k  c #605F5A",
"l  c #5F605D",
"z  c #61615E",
"x  c #5B5F60",
"c  c #646462",
"v  c #686765",
"b  c #676864",
"n  c #6A6966",
"m  c #66676A",
"M  c #686768",
"N  c #6C6C6B",
"B  c #706F6E",
"V  c #6F706E",
"C  c #71716F",
"Z  c #6E6F73",
"A  c #747473",
"S  c #787775",
"D  c #777876",
"F  c #7A7976",
"G  c #747779",
"H  c #76797B",
"J  c #7C7C7B",
"K  c #817F7D",
"L  c #7F807D",
"P  c #81827F",
"I  c #7D7E81",
"U  c #7E8284",
"Y  c #848483",
"T  c #878886",
"R  c #898986",
"E  c #838689",
"W  c #888788",
"Q  c #8C8C8B",
"!  c #918E8D",
"~  c #8F908E",
"^  c #92918F",
"/  c #8E8F91",
"(  c #8E9193",
")  c #949493",
"_  c #999795",
"`  c #979897",
"'  c #999997",
"]  c #949698",
"[  c #98979A",
"{  c #95989B",
"}  c #9C9C9B",
"|  c #A19E9D",
" . c #9FA09F",
".. c #A2A19F",
"X. c #9C9CA1",
"o. c #9FA1A2",
"O. c #A4A4A3",
"+. c #A8A7A6",
"@. c #A7A8A6",
"#. c #A9A9A7",
"$. c #A5A7AA",
"%. c #A8A7A8",
"&. c #A7ABAB",
"*. c #ACACAB",
"=. c #B1AFAE",
"-. c #B2B1AF",
";. c #ABADB1",
":. c #AEB1B3",
">. c #B3B3B2",
",. c #B8B6B5",
"<. c #B9B9B6",
"1. c #B5B6BA",
"2. c #B5B8B9",
"3. c #BCBBBA",
"4. c #C0BEBD",
"5. c #BFC0BF",
"6. c #C1C1BF",
"7. c #BDBEC0",
"8. c #C0BFC1",
"9. c #BEC1C2",
"0. c #C3C3C2",
"q. c #C9C7C6",
"w. c #C9C9C7",
"e. c #C9C7C8",
"r. c #C7CACC",
"t. c #CCCCCB",
"y. c #D1CFCE",
"u. c #CFD0CF",
"i. c #D2D0CE",
"p. c #CECED0",
"a. c #D4D3D3",
"s. c #D9D7D7",
"d. c #D7D9D7",
"f. c #DADAD7",
"g. c #D5D6D8",
"h. c #D7D8D8",
"j. c #DCDBDB",
"k. c #E1DFDE",
"l. c #DEE0DF",
"z. c #E1E0DF",
"x. c #DFE1E1",
"c. c #E4E4E3",
"v. c #E8E7E6",
"b. c #E7E8E5",
"n. c #E9E9E6",
"m. c #E6E6E8",
"M. c #ECEBEB",
"N. c #F1EFEF",
"B. c #F1F1EF",
"V. c #F0EFF0",
"C. c #F2F2F2",
"Z. c #F8F7F6",
"A. c #cd00cd",
/* pixels */
"A.A.A.A.A.A.A.A.A.A.A.A.A.A.A.A.A.A.A.A.A.A.A.A.A.A.A.A.A.A.A.A.A.A.A.A.A.A.A.A.A.A.A.A.A.A.A.A.A.A.A.A.A.A.A.A.A.A.A.A.A.A.A.A.",
"A.A.A.A.A.A.A.A.A.A.A.A.A.A.A.A.A.A.A.A.A.A.A.A.A.A.A.A.A.A.A.A.A.A.A.A.A.A.A.A.A.A.A.A.A.A.A.A.A.A.A.A.A.A.A.A.A.A.A.A.A.A.A.A.",
"A.A.A.A.A.A.A.A.A.A.A.A.A.A.A.A.A.A.A.A.A.A.A.A.A.A.A.A.A.A.A.A.A.A.A.A.A.A.A.A.A.A.A.A.A.A.A.A.A.A.A.A.A.A.A.A.A.A.A.A.A.A.A.A.",
"A.A.A.A.A.A.A.A.A.A.A.A.A.A.A.A.A.A.A.A.A.A.A.A.A.A.A.A.A.A.A.A.A.A.A.A.A.A.A.A.A.A.A.A.A.A.A.A.A.A.A.A.A.A.A.A.A.A.A.A.A.A.A.A.",
"A.A.A.A.A.A.A.A.A.A.A.A.A.A.A.A.A.A.A.A.A.A.A.A.A.A.A.A.A.A.A.A.A.A.A.A.A.A.A.A.A.A.A.A.A.A.A.A.A.A.A.A.A.A.A.A.A.A.A.A.A.A.A.A.",
"A.A.A.A.A.A.A.A.A.A.A.A.A.A.A.A.A.A.A.A.A.A.A.A.A.A.A.A.A.A.A.A.A.A.A.A.A.A.A.A.A.A.A.A.A.A.A.A.A.A.A.A.A.A.A.A.A.A.A.A.A.A.A.A.",
"A.A.A.A.A.A.A.A.A.A.A.A.A.A.A.A.A.A.A.A.A.A.A.A.A.A.A.A.A.A.A.A.A.A.A.A.A.A.A.A.A.A.A.A.A.A.A.A.A.A.A.A.A.A.A.A.A.A.A.A.A.A.A.A.",
"A.A.A.A.A.A.A.A.A.A.A.A.A.A.A.A.A.A.A.A.A.A.A.A.A.A.A.A.A.A.A.A.A.A.A.A.A.A.A.A.A.A.A.A.A.A.A.A.A.A.A.A.A.A.A.A.A.A.A.A.A.A.A.A.",
"A.A.A.A.A.A.A.A.A.A.A.A.A.A.A.A.A.A.A.A.A.A.A.A.A.A.A.A.A.A.A.A.A.A.A.A.A.A.A.A.A.A.A.A.A.A.A.A.A.A.A.A.A.A.A.A.A.A.A.A.A.A.A.A.",
"A.A.A.A.A.A.A.A.A.A.A.A.A.A.A.A.A.A.A.A.A.A.A.A.A.A.A.A.A.A.A.A.k.3.} Q _ ` _ 0.Z.A.A.A.A.A.A.A.A.A.A.A.A.A.A.A.A.A.A.A.A.A.A.A.",
"A.A.A.A.A.A.A.A.A.A.A.A.A.A.A.A.A.A.A.A.A.A.A.A.A.A.Z.C.x.3.[ H G { I Q H H A o # *.Z.A.A.A.A.A.A.A.A.A.A.A.A.A.A.A.A.A.A.A.A.A.",
"A.A.A.A.A.A.A.A.A.A.A.A.A.A.A.A.A.A.A.A.A.A.A.A.C.a.Q U Q J / } W } ' W C Y W d - o - W A.A.A.A.A.A.A.A.A.A.A.A.A.A.A.A.A.A.A.A.",
"A.A.A.A.A.A.A.A.A.A.A.A.A.A.A.A.A.A.A.A.A.M.u.2.t.' ' O.Q Y ` } ) X.@.Y L N Y y - < ; # 4 8.A.A.A.A.A.A.A.A.A.A.A.A.A.A.A.A.A.A.",
"A.A.A.A.A.A.A.A.A.A.A.A.A.A.A.A.A.A.A.M.j.e.c.c.3.Q ' } W W E ] W O.} E ) F + d c 6 * $ , @ r e.A.A.A.A.A.A.A.A.A.A.A.A.A.A.A.A.",
"A.A.A.A.A.A.A.A.A.A.A.A.A.A.A.A.A.A.j.j.u.t.j.j.>.} ^ Q } ' f x I / Q ;.) a o 8 3.8 3 # ; 1 ; & M A.A.A.A.A.A.A.A.A.A.A.A.A.A.A.",
"A.A.A.A.A.A.A.A.A.A.A.A.A.A.A.A.A.c.c.n.a.a.x.9.>.@.O.} ` j - < I G ] ;.J I f N J z w O - - 4 4 - a.A.A.A.A.A.A.A.A.A.A.A.A.A.A.",
"A.A.A.A.A.A.A.A.A.A.A.A.A.A.A.A.Z.5.c.M.c.m.m.m.h.#.| } ) + 4 < s Q E E G J / J _ K w d @ # e 1 6 1 0.A.A.A.A.A.A.A.A.A.A.A.A.A.",
"A.A.A.A.A.A.A.A.A.A.A.A.A.A.A.A.h.b.u.M.M.m.j.5.t.+._ ` J ; < < < I G H U ] ] O.! S g z e * 6 1 4 < = j.A.A.A.A.A.A.A.A.A.A.A.A.",
"A.A.A.A.A.A.A.A.A.A.A.A.A.A.*.3.V.c.| q.b.M.B.} *.%.*.} k e o 6 4 U 9 { G ( >.e.) J k g k 1 - - < 4 6 < A.A.A.A.A.A.A.A.A.A.A.A.",
"A.A.A.A.A.A.A.A.A.A.A.A.A.a.a.%.a.a.:.h.j.N.h.U a.O.*.} g j   r < -   ;.G { :.0.,.^ B y z p 3 - - 6 4 = 0.A.A.A.A.A.A.A.A.A.A.A.",
"A.A.A.A.A.A.A.A.A.A.A.A.M.0.c.a.a.;.m.t.a.0.x.m.` 3.%.Q g g . - < -   { H J #.>.^ ' Y F w 9 : : , < = 5 7 A.A.A.A.A.A.A.A.A.A.A.",
"A.A.A.A.A.A.A.A.A.A.A.i.3.3.j.t.n.l.9.h.Y 9.M.j.e.=.j A =.c t k - ) } O.~ 3.>.O.| _ _ _ C v 8 @ - , < < o A.A.A.A.A.A.A.A.A.A.A.",
"A.A.A.A.A.A.A.A.A.A.3.=.h d.t.q.a.u.a.3.u.O.m.x.t.#.J 6 *.} N T d * )  .*.} T <.R ..#.P P A n q # - < 4 & 0.A.A.A.A.A.A.A.A.A.A.",
"A.A.A.A.A.A.A.A.A.A.0.*.Z.*.a.*.j.d.2.} x.9.C.a.0.t.@.*.) _ P F F o N -.#.Q | j =.6.-._ C D A t j & < 6 6 3 t.A.A.A.A.A.A.A.A.A.",
"A.A.A.A.A.A.A.A.A.j.=.a.*.w.M.>.3.z.Q t ~ >.C.l.) a.w.0._ ..! C Y d A -.T S J P  .! j M z ` Y w r A # + 1 1 3 d.A.A.A.A.A.A.A.A.",
"A.A.A.A.A.A.A.A.V.a.5.z.q.N h C.#.v.1 9 z o.C.M.o.q.-.6.| w <.P S T T R v P C p & = - l R ' ' f p W c w 7 r g g A.A.A.A.A.A.A.A.",
"A.A.A.A.A.A.A.A.Z.^ q.*.l.  - b.y.t.. o s { t.c.#.w.6.t.8 3 4.k.t F } B y N 3 @ - = < N ^ ( 3.@.j Q Y c J p w 8 t.A.A.A.A.A.A.A.",
"A.A.A.A.A.A.A.A.t. .9.a.q.0.@.>.0.i.X o 9 W u.q.>.-.n.v.w O | i.v K K e 1 6 @ # # = < r [ *.*.a.Q W ^ T W A 3 9 l A.A.A.A.A.A.A.",
"A.A.A.A.A.A.A.C.) 3.*.j.>.t.X.[ t.M.:.- r ) N.<.*.J B.z.<.F n ..! ^ t - r 1 . @ - - 4 e ;.:.>.t.X.} ( O.) T 9 > 7 A.A.A.A.A.A.A.",
"A.A.A.A.A.A.Z.C.-.Y >.3.0.2.I 9.@.0.C.M.6.>...>.q.t.,.z.^ ! K ' O.t < 8 g o . # - , 5 6 ..0.3.q.c.W o.o.@.l e 2 o Z.A.A.A.A.A.A.",
"A.A.A.A.A.A.A.C.d O./ e.t.6.A >.3.j.>.a.-.) #.O.3.q...-.n P R P 8 ; ; 7 6 . . ; < 1 2 < ` 2.3.r.m.*.*.d.T f p 6 o a.A.A.A.A.A.A.",
"A.A.A.A.A.A.A.Y e Z ] y.a.r.c $.p.j.0.q.>.3.O.V q.q.*.p A P z 8 1 d - x 1   @ 4 2 6 1 r 3.<.:.w.M.0.<.O.D Q 3 3 # 0.A.A.A.A.A.A.",
"A.A.A.A.A.A.*.v O.Q 3.2.#.q.>.f.c.3.>.^ 6.} 6.! ..B.! r g < A = Q y # x < . < 5 5 , 5 O.3.;.:.t.g.3./ X.' J 3 1 3 A.A.A.A.A.A.A.",
"A.A.A.A.A.A.! } #.' -.2.0.j.>.n.t.<.,.y.*.O.<.5.>.<.Q ; 4 h N % d p 4 < # # 4 7 < 6 ) #.*.2.0.r.1.) N :.6.T 8 O <.A.A.A.A.A.A.A.",
"A.A.A.A.A.y.s.4.-.*.Q r.w.<.N.y.i.e.#.3.) R 6.u.4.,.) - 1 a A - w 3 1 9 s + 1 < c J O.@.*.3.a.p.;.( Y ' #.z w w A.A.A.A.A.A.A.A.",
"A.A.A.A.A.t.A.} -.o.&.2.t.>.w.z.n.>.#.+.% n <.t.w.<.j 7 e 9 Y 1 1 6 6 r m < - 7 J ~ ) } O.0.z.i._ } t.Q 6 9 $ A.A.A.A.A.A.A.A.A.",
"A.A.A.A.A.z.M.) 3.2.` a.*.q.6.Q t.t.3.@.R ! a.Q >.O.g g r   r g 9 e e t - *.+ j Y W ] } =.w.k.' >.^ O.% > > V A.A.A.A.A.A.A.A.A.",
"A.A.A.A.A.A.a.4.>.q.#.=.#.) ;.2.#.m.q.O._ ) ,.} P 6.N J - # 4 r ; o d 3 , :.~ t S Y ) +.3.w.y.Y w.T Y O O > Z.A.A.A.A.A.A.A.A.A.",
"A.A.A.A.A.c.*.a.3.w.q.-.H 6 %.9.0.j.~ 2.j 6.#...P 3.N t w 9 4 r g w v K v P O.V | ) ..=.<.| w.-.| z % $ 2 A.A.A.A.A.A.A.A.A.A.A.",
"A.A.A.A.A.M.K Q C.*.} >.o.G 2.1.} d.Q 6.#.3.e.} T } A 1 - A g j j k y F T L -.F ' | j 3.=.=.t.2.n 8 $ X z.A.A.A.A.A.A.A.A.A.A.A.",
"A.A.A.A.A.>.<.R v.4.} _ X.8.1.9.` 3.#.e.t.u.-.#...F k > P C 8 k g 8 p 0 ) h *.O.! ) } ' 6.#.0.' Y 8 X v A.A.A.A.A.A.A.A.A.A.A.A.",
"A.A.A.A.A.c.F *.a.3.O.W ) O.o.$.&.:.M.e.w.*...y.R w 9 n F C o 1 ) f - H W d O.>.' } c q...>.>.) 8 X 9 A.A.A.A.A.A.A.A.A.A.A.A.A.",
"A.A.A.A.A.Z.B.A.=.0.Q Y X.E ;.) H X.M.+.#.#.,.>.N t g ..3 2 J y Y t S z e C 3.) +.^ H +.6.,...N X g A.A.A.A.A.A.A.A.A.A.A.A.A.A.",
"A.A.A.A.A.A.i.c.v.4._ F / 7.X.a $.x.O.#.y.4.0.O.C z Q n t J w v P j g   ( ) #.} ..F ' _ w.-.O.9 b A.A.A.A.A.A.A.A.A.A.A.A.A.A.A.",
"A.A.A.A.A.A.Z.b.t.| } c $.[ N Q &.O.c 3.y.i.i._ n ! F d Q c 8 n +.N 8 q E O.J *.) ^ ^ | 3.*.C c.A.A.A.A.A.A.A.A.A.A.A.A.A.A.A.A.",
"A.A.A.A.A.A.c.| V.>.+.} m m A 3.} Y Q | i.<.=.O.! _ n z C ) w 3 ^ : z H H ) l 3.F ^ +.} <.P A.A.A.A.A.A.A.A.A.A.A.A.A.A.A.A.A.A.",
"A.A.A.A.A.A.N.t.Z.Q d.e._ @.$.0.' ' +.*.q.y.| | ' p N B N v r c J ! J z N  .) ! | ^ <.P u A.A.A.A.A.A.A.A.A.A.A.A.A.A.A.A.A.A.A.",
"A.A.A.A.A.A.A.@.Y t.b.#.) >.*.3.%.0.6.=.6.,.K A 3 v C P Q J ' v c j v K d } >.} | ..! 1 A.A.A.A.A.A.A.A.A.A.A.A.A.A.A.A.A.A.A.A.",
"A.A.A.A.A.A.A.Z.t.j.n.3.! P Q | c =.! R n v v 6   Y 3.<.J #.} j K z S p A K t.#.! Y t A.A.A.A.A.A.A.A.A.A.A.A.A.A.A.A.A.A.A.A.A.",
"A.A.A.A.A.A.A.A.M.a.f.n ^ A n ' ) e #...3.| w p J -.T y     F j.t P Q ^ c 3.O.F c Q z.A.A.A.A.A.A.A.A.A.A.A.A.A.A.A.A.A.A.A.A.A.",
"A.A.A.A.A.A.A.A.A.a.3.^ ....' } <.N 3.+.^ _ O.S B A Y e # w  .j f N J #.+.) N b j.A.A.A.A.A.A.A.A.A.A.A.A.A.A.A.A.A.A.A.A.A.A.A.",
"A.A.A.A.A.A.A.A.A.A.e.=.c.q.3.4.=.,.Q J ^ ) +.v _ w A n C S e g g A S q.' N O >.A.A.A.A.A.A.A.A.A.A.A.A.A.A.A.A.A.A.A.A.A.A.A.A.",
"A.A.A.A.A.A.A.A.A.A.t.' -.c ` 3.t...O...T Q R Y K k v z C z P 3 p Y 9 N =.0.c.A.A.A.A.A.A.A.A.A.A.A.A.A.A.A.A.A.A.A.A.A.A.A.A.A.",
"A.A.A.A.A.A.A.A.A.A.A.C.@.&.3.0.N 0.v.! T F P B n k N z p i > 8 ) <.3.A.A.A.A.A.A.A.A.A.A.A.A.A.A.A.A.A.A.A.A.A.A.A.A.A.A.A.A.A.",
"A.A.A.A.A.A.A.A.A.A.A.A.A.A.M.x.0.J ' W ! | c.M.N.t.M.0.6.3.i.A.A.A.A.A.A.A.A.A.A.A.A.A.A.A.A.A.A.A.A.A.A.A.A.A.A.A.A.A.A.A.A.A.",
"A.A.A.A.A.A.A.A.A.A.A.A.A.A.A.A.A.A.A.Z.A.A.A.A.A.A.A.A.A.A.A.A.A.A.A.A.A.A.A.A.A.A.A.A.A.A.A.A.A.A.A.A.A.A.A.A.A.A.A.A.A.A.A.A.",
"A.A.A.A.A.A.A.A.A.A.A.A.A.A.A.A.A.A.A.A.A.A.A.A.A.A.A.A.A.A.A.A.A.A.A.A.A.A.A.A.A.A.A.A.A.A.A.A.A.A.A.A.A.A.A.A.A.A.A.A.A.A.A.A.",
"A.A.A.A.A.A.A.A.A.A.A.A.A.A.A.A.A.A.A.A.A.A.A.A.A.A.A.A.A.A.A.A.A.A.A.A.A.A.A.A.A.A.A.A.A.A.A.A.A.A.A.A.A.A.A.A.A.A.A.A.A.A.A.A.",
"A.A.A.A.A.A.A.A.A.A.A.A.A.A.A.A.A.A.A.A.A.A.A.A.A.A.A.A.A.A.A.A.A.A.A.A.A.A.A.A.A.A.A.A.A.A.A.A.A.A.A.A.A.A.A.A.A.A.A.A.A.A.A.A.",
"A.A.A.A.A.A.A.A.A.A.A.A.A.A.A.A.A.A.A.A.A.A.A.A.A.A.A.A.A.A.A.A.A.A.A.A.A.A.A.A.A.A.A.A.A.A.A.A.A.A.A.A.A.A.A.A.A.A.A.A.A.A.A.A.",
"A.A.A.A.A.A.A.A.A.A.A.A.A.A.A.A.A.A.A.A.A.A.A.A.A.A.A.A.A.A.A.A.A.A.A.A.A.A.A.A.A.A.A.A.A.A.A.A.A.A.A.A.A.A.A.A.A.A.A.A.A.A.A.A.",
"A.A.A.A.A.A.A.A.A.A.A.A.A.A.A.A.A.A.A.A.A.A.A.A.A.A.A.A.A.A.A.A.A.A.A.A.A.A.A.A.A.A.A.A.A.A.A.A.A.A.A.A.A.A.A.A.A.A.A.A.A.A.A.A.",
"A.A.A.A.A.A.A.A.A.A.A.A.A.A.A.A.A.A.A.A.A.A.A.A.A.A.A.A.A.A.A.A.A.A.A.A.A.A.A.A.A.A.A.A.A.A.A.A.A.A.A.A.A.A.A.A.A.A.A.A.A.A.A.A.",
"A.A.A.A.A.A.A.A.A.A.A.A.A.A.A.A.A.A.A.A.A.A.A.A.A.A.A.A.A.A.A.A.A.A.A.A.A.A.A.A.A.A.A.A.A.A.A.A.A.A.A.A.A.A.A.A.A.A.A.A.A.A.A.A."
};
